<?xml version="1.0" encoding="iso-8859-1"?>
<!-- Generator: Adobe Illustrator 16.0.0, SVG Export Plug-In . SVG Version: 6.00 Build 0)  -->
<!DOCTYPE svg PUBLIC "-//W3C//DTD SVG 1.1//EN" "http://www.w3.org/Graphics/SVG/1.1/DTD/svg11.dtd">
<svg version="1.1" id="Layer_1" xmlns="http://www.w3.org/2000/svg" xmlns:xlink="http://www.w3.org/1999/xlink" x="0px" y="0px"
	 width="500px" height="440px" viewBox="0 0 500 440" style="enable-background:new 0 0 500 440;" xml:space="preserve">
<path style="fill-rule:evenodd;clip-rule:evenodd;" d="M249.333,393h2.335c0.184,0,0.333,0.128,0.333,0.287v0.43
	c0,0.158-0.149,0.287-0.333,0.287h-2.335c-0.184,0-0.333-0.128-0.333-0.287v-0.43C249,393.128,249.149,393,249.333,393z
	 M249,390.282c0-0.158,0.149-0.287,0.333-0.287h2.335c0.184,0,0.333,0.128,0.333,0.287v0.43c0,0.158-0.149,0.287-0.333,0.287h-2.335
	c-0.184,0-0.333-0.128-0.333-0.287V390.282z M258,389.179v5.411v2.628l0,0c0,0.001,0,0.003,0,0.005v0.149h-0.009
	c-0.093,1.473-1.487,2.628-3.084,2.628c0,0-7.697,0-9.779,0c-0.352,0-0.153-0.232-0.001-0.383c0.56-0.562,1.449-1.421,1.963-1.937
	c0.269-0.27,0.597-0.18,0.91-0.18c1.304,0,4.361,0,6,0c0.854,0,1.5-0.646,1.5-1.5v-8c-0.003-0.831-0.662-1.38-1.5-1.5
	c0.2,0.035-7,0-7,0c-0.854,0-1.5,1.146-1.5,2c0-2.357,0,7.5,0,7.5s0.09,0.444-0.179,0.713c-0.516,0.516-1.376,1.331-1.938,1.892
	c-0.151,0.151-0.383,0.351-0.383-0.002c0-2.088,0-11.821,0-11.821h0c0-1.498,1.497-2.701,3.093-2.775V384h8.814
	c1.653,0,3.093,1.236,3.093,2.782l0,0V389.179z"/>
<path d="M176.471,419v-3.648h4.165v-0.888h-4.165v-2.58h4.249v-0.888h-5.245V419H176.471z"/>
<path d="M182.951,419v-4.104c0.264-0.468,1.02-0.924,1.584-0.924c0.132,0,0.24,0.012,0.348,0.024v-0.924
	c-0.792,0-1.464,0.456-1.932,1.056v-0.924h-0.9V419H182.951z"/>
<path d="M188.639,419.144c0.936,0,1.716-0.324,2.304-0.9l-0.432-0.588c-0.468,0.48-1.128,0.744-1.8,0.744
	c-1.248,0-2.004-0.912-2.076-2.004h4.68v-0.229c0-1.74-1.032-3.108-2.784-3.108c-1.656,0-2.856,1.356-2.856,3.036
	C185.675,417.908,186.911,419.144,188.639,419.144z M190.427,415.724h-3.804c0.048-0.876,0.66-1.92,1.896-1.92
	C189.839,413.804,190.416,414.872,190.427,415.724z"/>
<path d="M195.395,419.144c0.936,0,1.716-0.324,2.304-0.9l-0.432-0.588c-0.468,0.48-1.128,0.744-1.8,0.744
	c-1.248,0-2.004-0.912-2.076-2.004h4.68v-0.229c0-1.74-1.032-3.108-2.784-3.108c-1.656,0-2.856,1.356-2.856,3.036
	C192.431,417.908,193.667,419.144,195.395,419.144z M197.183,415.724h-3.804c0.048-0.876,0.66-1.92,1.896-1.92
	C196.595,413.804,197.171,414.872,197.183,415.724z"/>
<path d="M205.259,419.144c2.16,0,2.952-1.2,2.952-2.352c0-2.988-4.74-1.957-4.74-3.756c0-0.756,0.696-1.272,1.644-1.272
	c0.876,0,1.716,0.288,2.316,0.96l0.6-0.732c-0.672-0.708-1.62-1.128-2.833-1.128c-1.584,0-2.76,0.912-2.76,2.232
	c0,2.856,4.741,1.704,4.741,3.768c0,0.624-0.456,1.392-1.884,1.392c-1.128,0-1.992-0.552-2.508-1.152l-0.6,0.768
	C202.847,418.616,203.879,419.144,205.259,419.144z"/>
<path d="M214.187,419v-3.984c0-1.404-1.008-1.956-2.244-1.956c-0.948,0-1.692,0.312-2.316,0.96l0.42,0.624
	c0.516-0.564,1.08-0.804,1.776-0.804c0.84,0,1.464,0.444,1.464,1.212v1.044c-0.468-0.528-1.128-0.78-1.92-0.78
	c-0.984,0-2.016,0.6-2.016,1.908c0,1.26,1.044,1.92,2.016,1.92c0.78,0,1.452-0.276,1.92-0.804V419H214.187z M211.703,418.496
	c-0.852,0-1.44-0.528-1.44-1.272c0-0.732,0.588-1.26,1.44-1.26c0.624,0,1.236,0.24,1.584,0.708v1.104
	C212.939,418.256,212.327,418.496,211.703,418.496z"/>
<path d="M223.896,419v-4.188c0-1.164-0.564-1.752-1.621-1.752c-0.84,0-1.62,0.552-1.944,1.08c-0.168-0.6-0.672-1.08-1.548-1.08
	c-0.864,0-1.632,0.612-1.884,0.984v-0.84h-0.9V419h0.9v-4.236c0.312-0.468,0.936-0.9,1.524-0.9c0.768,0,1.068,0.468,1.068,1.2V419
	h0.9v-4.249c0.3-0.468,0.936-0.888,1.536-0.888c0.756,0,1.068,0.468,1.068,1.2V419H223.896z"/>
<path d="M228.551,419.144c1.524,0,2.58-1.176,2.58-3.048c0-1.884-1.056-3.036-2.58-3.036c-0.816,0-1.536,0.42-1.956,1.008v-0.864
	h-0.9v8.004h0.9v-3.084C227.075,418.76,227.759,419.144,228.551,419.144z M228.323,418.34c-0.708,0-1.416-0.432-1.728-0.936v-2.616
	c0.312-0.504,1.02-0.924,1.728-0.924c1.164,0,1.86,0.948,1.86,2.232S229.487,418.34,228.323,418.34z"/>
<path d="M233.458,419v-8.005h-0.9V419H233.458z"/>
<path d="M237.887,419.144c0.936,0,1.716-0.324,2.304-0.9l-0.432-0.588c-0.468,0.48-1.128,0.744-1.8,0.744
	c-1.248,0-2.004-0.912-2.076-2.004h4.681v-0.229c0-1.74-1.032-3.108-2.784-3.108c-1.656,0-2.856,1.356-2.856,3.036
	C234.922,417.908,236.159,419.144,237.887,419.144z M239.675,415.724h-3.804c0.048-0.876,0.66-1.92,1.896-1.92
	C239.087,413.804,239.663,414.872,239.675,415.724z"/>
<path d="M246.022,417.428V414.8c0.312-0.504,1.02-0.937,1.74-0.937c1.164,0,1.86,0.96,1.86,2.245c0,1.284-0.696,2.232-1.86,2.232
	C247.042,418.34,246.334,417.932,246.022,417.428z M246.022,419v-0.864c0.432,0.588,1.14,1.008,1.957,1.008
	c1.512,0,2.58-1.152,2.58-3.036c0-1.86-1.056-3.048-2.58-3.048c-0.78,0-1.488,0.384-1.957,1.02v-3.084h-0.9V419H246.022z"/>
<path d="M251.71,421.268c0.156,0.048,0.456,0.084,0.648,0.084c0.768-0.012,1.356-0.336,1.704-1.176l2.904-6.973h-0.972l-1.933,4.752
	l-1.92-4.752h-0.984l2.424,5.856l-0.384,0.876c-0.204,0.48-0.468,0.612-0.864,0.612c-0.144,0-0.36-0.036-0.492-0.096L251.71,421.268
	z"/>
<path d="M264.334,419.84c0.888,0,1.752-0.276,2.496-0.756l-0.216-0.312c-0.648,0.408-1.38,0.672-2.232,0.672
	c-1.992,0-3.432-1.476-3.432-3.396c0-2.244,1.98-4.296,4.309-4.296c2.04,0,3.396,1.428,3.396,3.396c0,1.656-0.84,2.185-1.308,2.185
	c-0.312,0-0.564-0.228-0.564-0.624c0-0.072,0.012-0.18,0.024-0.252l0.684-3.252h-0.816l-0.156,0.744
	c-0.228-0.516-0.756-0.936-1.536-0.936c-1.416,0-2.82,1.344-2.82,3.012c0,1.164,0.72,1.956,1.836,1.956
	c0.768,0,1.488-0.456,1.908-1.056v0.084c0.036,0.504,0.42,0.972,1.092,0.972c1.008,0,2.077-0.96,2.077-2.833
	c0-2.1-1.512-3.804-3.781-3.804c-2.496,0-4.764,2.136-4.764,4.729C260.53,418.196,262.15,419.84,264.334,419.84z M264.25,417.308
	c-0.78,0-1.224-0.564-1.224-1.332c0-1.164,0.912-2.292,2.112-2.292c0.708,0,1.104,0.504,1.236,0.876l-0.348,1.668
	C265.678,416.732,265.066,417.308,264.25,417.308z"/>
<path d="M271.306,417.428V414.8c0.312-0.504,1.02-0.937,1.74-0.937c1.164,0,1.86,0.96,1.86,2.245c0,1.284-0.696,2.232-1.86,2.232
	C272.326,418.34,271.618,417.932,271.306,417.428z M271.306,419v-0.864c0.432,0.588,1.14,1.008,1.956,1.008
	c1.512,0,2.581-1.152,2.581-3.036c0-1.86-1.056-3.048-2.581-3.048c-0.78,0-1.488,0.384-1.956,1.02v-3.084h-0.9V419H271.306z"/>
<path d="M282.118,419v-5.796h-0.9v4.26c-0.336,0.468-1.008,0.876-1.704,0.876c-0.792,0-1.308-0.3-1.308-1.32v-3.816h-0.9v4.092
	c0,1.248,0.636,1.848,1.848,1.848c0.864,0,1.62-0.456,2.064-0.96V419H282.118z"/>
<path d="M289.018,419v-8.005h-0.9v3.084c-0.468-0.636-1.176-1.02-1.956-1.02c-1.512,0-2.58,1.188-2.58,3.048
	c0,1.884,1.068,3.036,2.58,3.036c0.816,0,1.524-0.42,1.956-1.008V419H289.018z M286.39,418.34c-1.176,0-1.872-0.948-1.872-2.232
	c0-1.284,0.696-2.245,1.872-2.245c0.708,0,1.416,0.432,1.728,0.937v2.616C287.806,417.92,287.098,418.34,286.39,418.34z"/>
<path d="M291.273,412.375c0.336,0,0.6-0.264,0.6-0.6s-0.264-0.612-0.6-0.612s-0.612,0.276-0.612,0.612
	S290.938,412.375,291.273,412.375z M291.718,419v-5.796h-0.9V419H291.718z"/>
<path d="M294.994,419.144c0.516,0,0.84-0.156,1.068-0.372l-0.264-0.684c-0.12,0.132-0.348,0.252-0.612,0.252
	c-0.384,0-0.576-0.312-0.576-0.744v-3.6h1.176v-0.792h-1.176v-1.584h-0.912v1.584h-0.96v0.792h0.96v3.792
	C293.697,418.652,294.129,419.144,294.994,419.144z"/>
<path d="M301.57,419v-3.984c0-1.404-1.008-1.956-2.244-1.956c-0.948,0-1.692,0.312-2.316,0.96l0.42,0.624
	c0.516-0.564,1.08-0.804,1.776-0.804c0.84,0,1.464,0.444,1.464,1.212v1.044c-0.468-0.528-1.128-0.78-1.92-0.78
	c-0.984,0-2.016,0.6-2.016,1.908c0,1.26,1.044,1.92,2.016,1.92c0.78,0,1.452-0.276,1.92-0.804V419H301.57z M299.085,418.496
	c-0.852,0-1.44-0.528-1.44-1.272c0-0.732,0.588-1.26,1.44-1.26c0.624,0,1.236,0.24,1.584,0.708v1.104
	C300.322,418.256,299.709,418.496,299.085,418.496z"/>
<path d="M308.194,419v-4.068c0-1.26-0.636-1.872-1.836-1.872c-0.876,0-1.668,0.492-2.076,0.984v-0.84h-0.9V419h0.9v-4.236
	c0.348-0.468,1.008-0.9,1.716-0.9c0.78,0,1.308,0.313,1.308,1.344V419H308.194z"/>
<path d="M310.905,419v-4.104c0.264-0.468,1.02-0.924,1.584-0.924c0.132,0,0.24,0.012,0.348,0.024v-0.924
	c-0.792,0-1.464,0.456-1.932,1.056v-0.924h-0.9V419H310.905z"/>
<path d="M314.421,412.375c0.336,0,0.6-0.264,0.6-0.6s-0.264-0.612-0.6-0.612s-0.612,0.276-0.612,0.612
	S314.085,412.375,314.421,412.375z M314.865,419v-5.796h-0.9V419H314.865z"/>
<path d="M324.562,419v-4.188c0-1.164-0.564-1.752-1.62-1.752c-0.84,0-1.62,0.552-1.944,1.08c-0.168-0.6-0.672-1.08-1.548-1.08
	c-0.864,0-1.632,0.612-1.884,0.984v-0.84h-0.9V419h0.9v-4.236c0.312-0.468,0.936-0.9,1.524-0.9c0.769,0,1.068,0.468,1.068,1.2V419
	h0.9v-4.249c0.3-0.468,0.936-0.888,1.536-0.888c0.756,0,1.068,0.468,1.068,1.2V419H324.562z"/>
<path style="fill-rule:evenodd;clip-rule:evenodd;" d="M234,59.999h-9c-0.552,0-1-0.448-1-1v-13c0-0.552,0.448-1,1-1h1v-1h1v1h2v-1
	h1v1h2v-1h1v1h1c0.552,0,1,0.448,1,1v13C235,59.551,234.552,59.999,234,59.999z M234,46.499c0-0.276-0.224-0.5-0.5-0.5H233h-1h-2h-1
	h-2h-1h-0.5c-0.276,0-0.5,0.224-0.5,0.5v12c0,0.276,0.224,0.5,0.5,0.5h8c0.276,0,0.5-0.224,0.5-0.5V46.499z M232.5,55.999h-6
	c-0.276,0-0.5-0.224-0.5-0.5c0-0.276,0.224-0.5,0.5-0.5h6c0.276,0,0.5,0.224,0.5,0.5C233,55.775,232.776,55.999,232.5,55.999z
	 M232.5,52.999h-6c-0.276,0-0.5-0.224-0.5-0.5s0.224-0.5,0.5-0.5h6c0.276,0,0.5,0.224,0.5,0.5S232.776,52.999,232.5,52.999z
	 M232.5,49.999h-6c-0.276,0-0.5-0.224-0.5-0.5c0-0.276,0.224-0.5,0.5-0.5h6c0.276,0,0.5,0.224,0.5,0.5
	C233,49.775,232.776,49.999,232.5,49.999z M222,59.999h-2c-0.552,0-1-0.448-1-1v-7v-1v-6c0-0.552,0.448-1,1-1h2c0.552,0,1,0.448,1,1
	v6v1v7C223,59.551,222.552,59.999,222,59.999z M222,45.499c0-0.276-0.224-0.5-0.5-0.5h-1c-0.276,0-0.5,0.224-0.5,0.5v5.5h2V45.499z
	 M222,51.999h-2v6.5c0,0.276,0.224,0.5,0.5,0.5h1c0.276,0,0.5-0.224,0.5-0.5V51.999z"/>
<path style="fill-rule:evenodd;clip-rule:evenodd;" d="M328.5,59.999h-14c-0.276,0-0.5-0.224-0.5-0.5v-2.5v-1v-11.5
	c0-0.276,0.224-0.5,0.5-0.5h6.5h1h6.5c0.276,0,0.5,0.224,0.5,0.5v11.5v1v2.5C329,59.775,328.776,59.999,328.5,59.999z M321,44.999
	h-5.5c-0.276,0-0.5,0.224-0.5,0.5v10.5h6V44.999z M328,45.5c0-0.277-0.224-0.5-0.5-0.5H322v11h6V45.5z M328,56.999h-6h-1h-6v1.5
	c0,0.277,0.224,0.5,0.5,0.5h12c0.276,0,0.5-0.224,0.5-0.5V56.999z M324,52.999h-1v-3h1V52.999z M320,52.999h-1v-3h1V52.999z"/>
<path style="fill-rule:evenodd;clip-rule:evenodd;" d="M281.5,59.999h-12c-1.104,0-2-0.896-2-2v-12c0-1.105,0.896-2,2-2h12
	c1.104,0,2,0.896,2,2v12C283.5,59.103,282.604,59.999,281.5,59.999z M268.5,57.999c0,0.552,0.448,1,1,1h9v-11h-10V57.999z
	 M282.5,45.999c0-0.553-0.448-1-1-1h-12c-0.552,0-1,0.448-1,1v1h14V45.999z M282.5,47.999h-3v11h2c0.552,0,1-0.447,1-1V47.999z
	 M276,56.999h-5c-0.276,0-0.5-0.224-0.5-0.5c0-0.276,0.224-0.5,0.5-0.5h5c0.276,0,0.5,0.224,0.5,0.5
	C276.5,56.775,276.276,56.999,276,56.999z M276,53.999h-5c-0.276,0-0.5-0.224-0.5-0.5c0-0.276,0.224-0.5,0.5-0.5h5
	c0.276,0,0.5,0.224,0.5,0.5C276.5,53.775,276.276,53.999,276,53.999z M276,50.999h-5c-0.276,0-0.5-0.224-0.5-0.5
	c0-0.276,0.224-0.5,0.5-0.5h5c0.276,0,0.5,0.224,0.5,0.5C276.5,50.775,276.276,50.999,276,50.999z"/>
<path style="fill-rule:evenodd;clip-rule:evenodd;" d="M374,55.999h-1v-1h1V55.999z M373,46.999h1v1h-1V46.999z M372,55.999h-1v-1h1
	V55.999z M371,46.999h1v1h-1V46.999z M375,57.999h-5v-1h4.5c0.276,0,0.5-0.224,0.5-0.5v-10c0-0.276-0.224-0.5-0.5-0.5h-6
	c-0.276,0-0.5,0.224-0.5,0.5v9.5v0.5v1.5c-0.035,0-0.063-0.016-0.097-0.02c-0.202,0.589-0.745,1.02-1.403,1.02h-5
	c-0.829,0-1.5-0.672-1.5-1.5v-12c0-0.828,0.671-1.5,1.5-1.5h5c0.658,0,1.201,0.43,1.403,1.02c0.034-0.003,0.063-0.02,0.097-0.02h7
	c0.552,0,1,0.449,1,1v11C376,57.551,375.552,57.999,375,57.999z M361.5,57.999h5c0.276,0,0.5-0.224,0.5-0.5v-0.5h-6v0.5
	C361,57.775,361.224,57.999,361.5,57.999z M367,45.499c0-0.276-0.224-0.5-0.5-0.5h-5c-0.276,0-0.5,0.224-0.5,0.5v0.5h6V45.499z
	 M361,46.999v9h6v-9H361z M370,47.999h-1v-1h1V47.999z M370,55.999h-1v-1h1V55.999z"/>
<path style="fill-rule:evenodd;clip-rule:evenodd;" d="M415,60c0,0-6-6.686-6-10c0-3.314,2.686-6,6-6c3.313,0,6,2.686,6,6
	C421,53.313,415,60,415,60z M415,45c-2.762,0-5,2.238-5,5c0,2.761,5,8.5,5,8.5s5-5.738,5-8.5C420,47.238,417.761,45,415,45z
	 M415,53.5c-1.933,0-3.5-1.567-3.5-3.5c0-1.933,1.567-3.5,3.5-3.5s3.5,1.567,3.5,3.5C418.5,51.933,416.933,53.5,415,53.5z M415,47.5
	c-1.381,0-2.5,1.119-2.5,2.5c0,1.38,1.119,2.5,2.5,2.5c1.38,0,2.5-1.119,2.5-2.5C417.5,48.619,416.38,47.5,415,47.5z"/>
<path style="fill-rule:evenodd;clip-rule:evenodd;" d="M139,59.999h-14c-0.552,0-1-0.448-1-1v-10v-1v-1v-2c0-0.552,0.448-1,1-1h5
	c0.552,0,1,0.448,1,1v1h8c0.552,0,1,0.448,1,1v2v10C140,59.551,139.552,59.999,139,59.999z M138.5,46.999h-1H130v-0.5v-0.5v-0.5
	c0-0.275-0.224-0.5-0.5-0.5h-4c-0.276,0-0.5,0.224-0.5,0.5v0.5v0.5v0.5v1h12.5h1c0.276,0,0.5-0.224,0.5-0.5
	C139,47.223,138.776,46.999,138.5,46.999z M139,49.999v-0.5v-0.5h-0.5h-13H125v0.5v0.5V58.5c0,0.275,0.224,0.499,0.5,0.499h13
	c0.276,0,0.5-0.224,0.5-0.499V49.999z"/>
<path style="fill-rule:evenodd;clip-rule:evenodd;" d="M186,59.499c0,0.276-0.224,0.5-0.5,0.5h-12c-0.276,0-0.5-0.224-0.5-0.5v-15
	c0-0.276,0.224-0.5,0.5-0.5h8.5v0.242l0.237-0.237l3.758,3.758l-0.237,0.237H186V59.499z M181,47.999v-3h-6.5
	c-0.276,0-0.5,0.224-0.5,0.5v13c0,0.276,0.224,0.5,0.5,0.5h10c0.276,0,0.5-0.224,0.5-0.5v-9.5h-3h-1V47.999z M182,45.23v2.768h2.768
	L182,45.23z"/>
<path style="fill-rule:evenodd;clip-rule:evenodd;" d="M90,60H79c-1.104,0-2-0.896-2-2v-8v-1v-3c0-1.104,0.896-2,2-2h4
	c1.104,0,2,0.896,2,2h5c1.104,0,2,0.895,2,2v1v1v1v7C92,59.104,91.104,60,90,60z M91,48c0-0.553-0.448-1-1-1h-1h-4h-1v-1
	c0-0.552-0.448-1-1-1h-4c-0.552,0-1,0.448-1,1v1v1v1h13V48z M78,50v1v0.723V58c0,0.552,0.448,1,1,1h11c0.552,0,1-0.448,1-1v-5.277
	V51v-1H78z"/>
<path style="fill-rule:evenodd;clip-rule:evenodd;" d="M227,110.003c0,0-8-8.353-8-11.32c0-3.158,1.462-4.685,4.5-4.685
	c1.5,0,3.5,2.581,3.5,2.581s2-2.581,3.5-2.581c3.038,0,4.5,1.527,4.5,4.685C235,101.65,227,110.003,227,110.003z M230.5,95.031
	c-0.789,0-3.5,2.58-3.5,2.58s-2.711-2.58-3.5-2.58c-2.658,0-3.5,1.127-3.5,3.791c0,2.503,7,9.632,7,9.632s7-7.129,7-9.632
	C234,96.158,233.158,95.031,230.5,95.031z"/>
<path style="fill-rule:evenodd;clip-rule:evenodd;" d="M180,108.999c-4.418,0-8-3.581-8-8s3.582-8,8-8c4.418,0,8,3.582,8,8
	S184.418,108.999,180,108.999z M180,93.999c-3.866,0-7,3.134-7,7s3.134,7,7,7c3.866,0,7-3.134,7-7S183.866,93.999,180,93.999z"/>
<path style="fill-rule:evenodd;clip-rule:evenodd;" d="M139.846,96.338l-10.007,10.007c-0.193,0.193-0.507,0.193-0.7,0
	c-0.002-0.002-0.001-0.006-0.003-0.008c-0.004-0.004-0.01-0.005-0.015-0.009l-4.95-4.95c-0.195-0.195-0.195-0.512,0-0.707
	c0.195-0.195,0.512-0.195,0.707,0l4.617,4.617l9.65-9.65c0.193-0.193,0.507-0.193,0.7,0S140.039,96.145,139.846,96.338z"/>
<path style="fill-rule:evenodd;clip-rule:evenodd;" d="M85.679,100.983l6.151,6.151c0.191,0.191,0.191,0.502,0,0.694
	c-0.192,0.192-0.503,0.192-0.694,0l-6.151-6.151l-6.151,6.151c-0.192,0.192-0.502,0.192-0.694,0c-0.192-0.191-0.192-0.502,0-0.694
	l6.151-6.151l-6.151-6.151c-0.192-0.191-0.192-0.502,0-0.694s0.502-0.192,0.694,0l6.151,6.151l6.151-6.151
	c0.191-0.192,0.502-0.192,0.694,0c0.191,0.192,0.191,0.503,0,0.694L85.679,100.983z"/>
<path style="fill-rule:evenodd;clip-rule:evenodd;" d="M423.5,107.999h-14c-0.276,0-0.5-0.224-0.5-0.5v-4c0-0.276,0.224-0.5,0.5-0.5
	c0.276,0,0.5,0.224,0.5,0.5v3.5h13v-3.5c0-0.276,0.224-0.5,0.5-0.5c0.276,0,0.5,0.224,0.5,0.5v4
	C424,107.775,423.776,107.999,423.5,107.999z M416.858,104.854c-0.005,0.005-0.013,0.003-0.019,0.008
	c-0.085,0.08-0.198,0.129-0.323,0.134c-0.001,0-0.002,0-0.003,0c-0.134,0.004-0.269-0.039-0.372-0.142l-2.997-3.497
	c-0.197-0.197-0.197-0.517,0-0.713c0.197-0.197,0.517-0.197,0.713,0l2.142,2.499v-7.644c0-0.276,0.224-0.5,0.5-0.5
	c0.276,0,0.5,0.224,0.5,0.5v7.644l2.142-2.499c0.197-0.197,0.517-0.197,0.713,0c0.197,0.197,0.197,0.517,0,0.713L416.858,104.854z"
	/>
<path style="fill-rule:evenodd;clip-rule:evenodd;" d="M375.5,107.999h-14c-0.276,0-0.5-0.224-0.5-0.5v-4c0-0.276,0.224-0.5,0.5-0.5
	c0.276,0,0.5,0.223,0.5,0.5v3.5h13v-3.5c0-0.276,0.224-0.5,0.5-0.5c0.276,0,0.5,0.223,0.5,0.5v4
	C376,107.775,375.776,107.999,375.5,107.999z M371.142,99.354L369,96.855v7.644c0,0.276-0.224,0.5-0.5,0.5
	c-0.276,0-0.5-0.224-0.5-0.5v-7.644l-2.142,2.499c-0.197,0.198-0.516,0.198-0.713,0c-0.197-0.197-0.197-0.516,0-0.713l2.997-3.497
	c0.104-0.103,0.239-0.146,0.374-0.141c0.001,0,0.002,0,0.003,0c0.124,0.005,0.236,0.054,0.321,0.133
	c0.005,0.005,0.013,0.002,0.019,0.007l2.997,3.497c0.197,0.197,0.197,0.517,0,0.713C371.658,99.552,371.339,99.552,371.142,99.354z"
	/>
<path style="fill-rule:evenodd;clip-rule:evenodd;" d="M325,100.999c-1.078,0-2.015-0.573-2.544-1.426l-4.5,1.999
	c0.021,0.141,0.043,0.281,0.043,0.428c0,0.219-0.027,0.432-0.071,0.638l4.43,1.968c0.503-0.951,1.491-1.605,2.641-1.605
	c1.657,0,3,1.343,3,3c0,1.657-1.343,3-3,3c-1.657,0-3-1.343-3-3c0-0.146,0.022-0.287,0.043-0.428l-4.5-1.998
	c-0.529,0.853-1.466,1.426-2.543,1.426c-1.657,0-3-1.344-3-3c0-1.657,1.343-3,3-3c1.15,0,2.138,0.655,2.641,1.605l4.43-1.968
	C322.026,98.43,322,98.218,322,97.999c0-1.657,1.343-3,3-3c1.657,0,3,1.343,3,3S326.657,100.999,325,100.999z M325,107.998
	c1.104,0,2-0.895,2-2c0-1.105-0.896-2-2-2c-1.105,0-2,0.895-2,2C323,107.103,323.895,107.998,325,107.998z M315,99.998
	c-1.104,0-2,0.896-2,2s0.896,2,2,2s2-0.895,2-2S316.104,99.998,315,99.998z M325,95.999c-1.105,0-2,0.896-2,2s0.895,2,2,2
	c1.104,0,2-0.895,2-2S326.104,95.999,325,95.999z"/>
<path style="fill-rule:evenodd;clip-rule:evenodd;" d="M284,105h-1v-1h0.5c0.276,0,0.5-0.224,0.5-0.5v-9c0-0.275-0.224-0.5-0.5-0.5
	h-9c-0.276,0-0.5,0.224-0.5,0.5v0.5h-1v-1c0-0.553,0.448-1,1-1h10c0.552,0,1,0.448,1,1v10C285,104.552,284.552,105,284,105z
	 M282,96.999v11c0,0.553-0.448,1-1,1h-11c-0.552,0-1-0.447-1-1v-11c0-0.552,0.448-1,1-1h11C281.552,95.999,282,96.447,282,96.999z
	 M280.5,96.999h-10c-0.276,0-0.5,0.225-0.5,0.5v10c0,0.276,0.224,0.5,0.5,0.5h10c0.276,0,0.5-0.224,0.5-0.5v-10
	C281,97.224,280.776,96.999,280.5,96.999z"/>
<path style="fill-rule:evenodd;clip-rule:evenodd;" d="M368.856,156.999h3.644c0.276,0,0.5,0.224,0.5,0.5c0,0.276-0.224,0.5-0.5,0.5
	h-9c-0.276,0-0.5-0.224-0.5-0.5c0-0.276,0.224-0.5,0.5-0.5h3.644c-1.655-1.986-5.144-6.471-5.144-9c0-3.313,2.686-6,6-6
	c3.313,0,6,2.687,6,6C374,150.527,370.512,155.012,368.856,156.999z M368,142.999c-2.762,0-5,2.267-5,5.063c0,2.796,5,8.437,5,8.437
	s5-5.641,5-8.437C373,145.265,370.761,142.999,368,142.999z"/>
<path style="fill-rule:evenodd;clip-rule:evenodd;" d="M328.955,149.454c0.001,0.014,0.012,0.025,0.012,0.039
	c0,0.002,0.002,0.004,0.002,0.007s-0.001,0.005-0.001,0.007c0,0.006-0.003,0.011-0.003,0.018c-0.006,0.119-0.053,0.226-0.128,0.309
	c-0.006,0.007-0.003,0.017-0.01,0.023s-0.016,0.004-0.023,0.01c-0.01,0.009-0.027,0.007-0.039,0.016l-4.953,3.975
	c-0.19,0.19-0.499,0.19-0.689,0c-0.19-0.191-0.19-0.5,0-0.691l3.946-3.167h-11.574c-0.276,0-0.499-0.224-0.499-0.5
	s0.223-0.5,0.499-0.5h11.574l-3.946-3.167c-0.19-0.19-0.19-0.5,0-0.691c0.19-0.19,0.499-0.19,0.689,0l4.875,3.912
	c0.026,0.013,0.041,0.04,0.064,0.057c0.023,0.017,0.055,0.01,0.075,0.031c0.015,0.015,0.01,0.039,0.023,0.055
	C328.909,149.27,328.945,149.355,328.955,149.454z M320.485,143.999l-5.988-1c-0.276,0-0.499,0.224-0.499,0.5v12
	c0,0.276,0.223,0.5,0.499,0.5l5.988-1c0.275,0,0.499-0.224,0.499-0.5v1.5l-6.986,1c-0.551,0-0.998-0.448-0.998-1v-13
	c0-0.552,0.447-1,0.998-1l6.986,1v1.5C320.984,144.223,320.761,143.999,320.485,143.999z"/>
<path style="fill-rule:evenodd;clip-rule:evenodd;" d="M281.056,154.999l1.217,1.179c0.193,0.188,0.193,0.491,0,0.679
	c-0.193,0.187-0.507,0.187-0.701,0l-1.217-1.179l-1.217,1.179c-0.193,0.187-0.507,0.187-0.701,0c-0.193-0.188-0.193-0.492,0-0.679
	l1.217-1.179l-1.217-1.179c-0.193-0.188-0.193-0.492,0-0.679c0.194-0.188,0.507-0.188,0.701,0l1.217,1.179l1.217-1.179
	c0.193-0.188,0.507-0.188,0.701,0c0.193,0.188,0.193,0.491,0,0.679L281.056,154.999z M277.421,151.015
	c-0.771,0.611-1.713,0.984-2.744,0.984s-1.973-0.373-2.744-0.984c-1.063,0.082-1.901,0.933-1.901,1.984v2c0,1.105,0.924,2,2.064,2
	h5.032l-0.129,1h-4.903c-1.71,0-3.097-1.343-3.097-3v-2c0-1.321,0.888-2.431,2.112-2.831c-0.665-0.865-1.08-1.959-1.08-3.169
	c0-2.762,2.08-5,4.645-5s4.645,2.238,4.645,5c0,1.21-0.415,2.305-1.08,3.169c0.898,0.293,1.611,0.97,1.929,1.831h-1.135
	C278.705,151.451,278.113,151.068,277.421,151.015z M278.29,146.999c0-2.209-1.617-4-3.613-4c-1.995,0-3.613,1.791-3.613,4
	c0,2.209,1.618,4,3.613,4C276.673,150.999,278.29,149.208,278.29,146.999z"/>
<path style="fill-rule:evenodd;clip-rule:evenodd;" d="M233.818,153.82l-3.077,2.975c-0.014,0.019-0.009,0.045-0.026,0.062
	c-0.102,0.099-0.236,0.138-0.37,0.133c-0.134,0.005-0.268-0.034-0.37-0.133c-0.018-0.017-0.012-0.043-0.026-0.062l-1.008-0.975
	c-0.194-0.188-0.194-0.492,0-0.679c0.194-0.187,0.508-0.187,0.702,0l0.702,0.679l2.771-2.679c0.194-0.188,0.509-0.188,0.703,0
	S234.012,153.632,233.818,153.82z M228.439,151.015c-0.772,0.611-1.717,0.984-2.75,0.984c-1.032,0-1.977-0.373-2.75-0.984
	c-1.065,0.082-1.906,0.933-1.906,1.984v2c0,1.105,0.926,2,2.069,2h4.655v1h-4.655c-1.714,0-3.104-1.343-3.104-3v-2
	c0-1.321,0.889-2.431,2.117-2.831c-0.666-0.865-1.083-1.959-1.083-3.169c0-2.762,2.084-5,4.655-5c2.571,0,4.655,2.238,4.655,5
	c0,1.21-0.417,2.305-1.083,3.169c0.9,0.293,1.615,0.97,1.934,1.831h-1.138C229.726,151.451,229.132,151.068,228.439,151.015z
	 M229.31,146.999c0-2.209-1.621-4-3.621-4s-3.621,1.791-3.621,4c0,2.209,1.621,4,3.621,4S229.31,149.208,229.31,146.999z"/>
<path style="fill-rule:evenodd;clip-rule:evenodd;" d="M186.5,155.999h-4c-0.276,0-0.5-0.224-0.5-0.5c0-0.276,0.224-0.5,0.5-0.5h4
	c0.276,0,0.5,0.224,0.5,0.5C187,155.775,186.776,155.999,186.5,155.999z M181.158,151.015c-0.747,0.611-1.66,0.984-2.658,0.984
	s-1.912-0.373-2.658-0.984c-1.03,0.082-1.842,0.933-1.842,1.984v2c0,1.105,0.896,2,2,2h5l0,0v1l0,0h-5c-1.657,0-3-1.343-3-3v-2
	c0-1.321,0.86-2.431,2.046-2.831c-0.644-0.865-1.046-1.959-1.046-3.169c0-2.762,2.015-5,4.5-5s4.5,2.238,4.5,5
	c0,1.21-0.403,2.305-1.046,3.169c0.87,0.293,1.561,0.97,1.869,1.831h-1.099C182.401,151.451,181.828,151.068,181.158,151.015z
	 M182,146.999c0-2.209-1.567-4-3.5-4s-3.5,1.791-3.5,4c0,2.209,1.567,4,3.5,4S182,149.208,182,146.999z"/>
<path style="fill-rule:evenodd;clip-rule:evenodd;" d="M138.5,155.999H137v1.5c0,0.276-0.224,0.5-0.5,0.5
	c-0.276,0-0.5-0.223-0.5-0.5v-1.5h-1.5c-0.276,0-0.5-0.224-0.5-0.5c0-0.276,0.224-0.5,0.5-0.5h1.5v-1.5c0-0.276,0.224-0.5,0.5-0.5
	c0.276,0,0.5,0.224,0.5,0.5v1.5h1.5c0.276,0,0.5,0.224,0.5,0.5C139,155.775,138.776,155.999,138.5,155.999z M133.158,151.015
	c-0.746,0.611-1.66,0.984-2.658,0.984s-1.912-0.373-2.658-0.984c-1.03,0.082-1.842,0.933-1.842,1.984v2c0,1.105,0.896,2,2,2h5v1l0,0
	h-5c-1.657,0-3-1.343-3-3v-2c0-1.321,0.86-2.431,2.046-2.831c-0.644-0.865-1.046-1.959-1.046-3.169c0-2.762,2.015-5,4.5-5
	s4.5,2.238,4.5,5c0,1.21-0.403,2.305-1.046,3.169c0.87,0.293,1.561,0.97,1.869,1.831h-1.099
	C134.401,151.451,133.828,151.068,133.158,151.015z M134,146.999c0-2.209-1.567-4-3.5-4s-3.5,1.791-3.5,4c0,2.209,1.567,4,3.5,4
	S134,149.208,134,146.999z"/>
<path style="fill-rule:evenodd;clip-rule:evenodd;" d="M87,157.999h-5c-1.657,0-3-1.343-3-3v-2c0-1.321,0.86-2.431,2.046-2.831
	c-0.644-0.865-1.046-1.96-1.046-3.17c0-2.761,2.015-5,4.5-5s4.5,2.238,4.5,5c0,1.21-0.403,2.305-1.046,3.17
	c1.187,0.4,2.046,1.509,2.046,2.831v2C90,156.656,88.657,157.999,87,157.999z M88,146.999c0-2.209-1.567-4-3.5-4s-3.5,1.791-3.5,4
	c0,2.209,1.567,4,3.5,4S88,149.208,88,146.999z M89,152.999c0-1.051-0.813-1.902-1.842-1.984c-0.746,0.611-1.66,0.984-2.658,0.984
	s-1.912-0.373-2.658-0.984c-1.03,0.082-1.842,0.933-1.842,1.984v2c0,1.104,0.896,2,2,2h5c1.104,0,2-0.896,2-2V152.999z"/>
<path style="fill-rule:evenodd;clip-rule:evenodd;" d="M424,150.999h-0.021c0.075,1.167-0.737,2.513-2.146,3.335
	c-1.786,1.042-3.83,0.842-4.566-0.448c-0.736-1.29,0.114-3.181,1.9-4.223c1.359-0.794,2.865-0.863,3.833-0.283v-6.185l-8,1.697V153
	h-0.021c0.075,1.167-0.738,2.513-2.146,3.335c-1.786,1.042-3.83,0.842-4.566-0.448c-0.736-1.29,0.114-3.18,1.9-4.223
	c1.359-0.793,2.865-0.862,3.833-0.283V144l9-1.852v-0.149h0.722l0.011-0.002l0.001,0.002H424V150.999z M422.865,150.611
	c-0.453-0.796-1.878-0.821-3.184-0.054s-1.998,2.034-1.545,2.831c0.452,0.797,1.878,0.821,3.184,0.055
	C422.625,152.675,423.317,151.408,422.865,150.611z M413.865,152.611c-0.452-0.797-1.878-0.821-3.184-0.055
	s-1.998,2.034-1.546,2.831c0.453,0.796,1.878,0.82,3.185,0.054C413.625,154.675,414.317,153.408,413.865,152.611z"/>
<path style="fill-rule:evenodd;clip-rule:evenodd;" d="M138.875,201.033h-2.9L134,203.004l-1.975-1.971h-2.9
	c-0.622,0-1.125-0.493-1.125-1.101v-7.833c0-0.607,0.503-1.101,1.125-1.101h9.75c0.621,0,1.125,0.493,1.125,1.101v7.833
	C140,200.54,139.496,201.033,138.875,201.033z M139,192.339c0-0.188-0.16-0.341-0.357-0.341h-9.286
	c-0.197,0-0.357,0.152-0.357,0.341v7.322c0,0.188,0.16,0.341,0.357,0.341h3.146l1.498,1.495l1.497-1.495h3.146
	c0.197,0,0.357-0.153,0.357-0.341V192.339z M125,196.339v7.322c0,0.188,0.16,0.341,0.357,0.341h3.146l1.498,1.495l1.498-1.495h3.145
	c0.197,0,0.357-0.153,0.357-0.341v-0.662h1v0.933c0,0.607-0.504,1.1-1.125,1.1h-2.901L130,207.004l-1.974-1.972h-2.901
	c-0.622,0-1.125-0.493-1.125-1.1v-7.833c0-0.607,0.503-1.1,1.125-1.1H127v1h-1.643C125.16,195.999,125,196.151,125,196.339z"/>
<path style="fill-rule:evenodd;clip-rule:evenodd;" d="M186.5,203.999h-4.494L180,206.005l-2.006-2.006H173.5
	c-0.829,0-1.5-0.672-1.5-1.5v-10c0-0.829,0.671-1.5,1.5-1.5h13c0.828,0,1.5,0.671,1.5,1.5v10
	C188,203.327,187.328,203.999,186.5,203.999z M187,192.499c0-0.276-0.224-0.5-0.5-0.5h-13c-0.276,0-0.5,0.224-0.5,0.5v10
	c0,0.276,0.224,0.5,0.5,0.5h4.995l1.505,1.505l1.505-1.505h4.995c0.276,0,0.5-0.225,0.5-0.5V192.499z"/>
<path style="fill-rule:evenodd;clip-rule:evenodd;" d="M282,205.999h-12c-1.104,0-2-0.896-2-2v-9c0-1.104,0.896-2,2-2h3v-1.5
	c0-0.276,0.224-0.5,0.5-0.5h5c0.276,0,0.5,0.224,0.5,0.5v1.5h3c1.104,0,2,0.896,2,2v9C284,205.104,283.104,205.999,282,205.999z
	 M280,204.999v-7h-8v7H280z M269,203.999c0,0.552,0.448,1,1,1h1v-7h-2V203.999z M278,192.5c0-0.277-0.224-0.501-0.5-0.501h-3
	c-0.276,0-0.5,0.224-0.5,0.501v0.499h0.5h3h0.5V192.5z M283,194.999c0-0.552-0.448-1-1-1h-12c-0.552,0-1,0.448-1,1v2h14V194.999z
	 M283,197.999h-2v7h1c0.552,0,1-0.448,1-1V197.999z"/>
<path style="fill-rule:evenodd;clip-rule:evenodd;" d="M233,205.999h-12c-1.104,0-2-0.896-2-2v-9c0-1.104,0.896-2,2-2h3v-1.5
	c0-0.276,0.224-0.5,0.5-0.5h5c0.276,0,0.5,0.224,0.5,0.5v1.5h3c1.104,0,2,0.896,2,2v9C235,205.104,234.104,205.999,233,205.999z
	 M221,204.999h12c0.552,0,1-0.448,1-1v-6h-14v6C220,204.551,220.448,204.999,221,204.999z M229,192.5c0-0.277-0.224-0.501-0.5-0.501
	h-3c-0.276,0-0.5,0.224-0.5,0.501v0.499h0.5h3h0.5V192.5z M233,193.999h-12c-0.552,0-1,0.448-1,1v2h14v-2
	C234,194.447,233.552,193.999,233,193.999z"/>
<path style="fill-rule:evenodd;clip-rule:evenodd;" d="M375,205.999h-14c-0.552,0-1-0.448-1-1v-10c0-0.553,0.448-1,1-1h2.5l0.5-1
	c0,0,0.448-1,1-1h6c0.552,0,1,1,1,1l0.5,1h2.5c0.552,0,1,0.447,1,1v10C376,205.551,375.552,205.999,375,205.999z M375,195.499
	c0-0.276-0.224-0.5-0.5-0.5H372l-0.8-1.375c0,0-0.358-0.625-0.8-0.625h-4.8c-0.442,0-0.8,0.625-0.8,0.625L364,194.999h-2.5
	c-0.276,0-0.5,0.224-0.5,0.5v9c0,0.276,0.224,0.5,0.5,0.5h13c0.276,0,0.5-0.224,0.5-0.5V195.499z M368,203.999c-2.209,0-4-1.791-4-4
	c0-2.209,1.791-4,4-4s4,1.791,4,4C372,202.208,370.209,203.999,368,203.999z M368,196.999c-1.657,0-3,1.343-3,3c0,1.657,1.343,3,3,3
	c1.657,0,3-1.343,3-3C371,198.342,369.657,196.999,368,196.999z"/>
<path style="fill-rule:evenodd;clip-rule:evenodd;" d="M327,205.999h-12c-1.104,0-2-0.896-2-2v-9c0-1.104,0.896-2,2-2h2
	c0-1.104,0.896-2,2-2h4c1.104,0,2,0.896,2,2h2c1.104,0,2,0.896,2,2v9C329,205.103,328.104,205.999,327,205.999z M323,191.999h-4
	c-0.552,0-1,0.448-1,1h6C324,192.447,323.552,191.999,323,191.999z M328,194.999c0-0.552-0.448-1-1-1h-12c-0.552,0-1,0.448-1,1h2v1
	h-2v1h2v1h-2v6c0,0.552,0.448,1,1,1h12c0.552,0,1-0.448,1-1V194.999z M321,203.999c-2.209,0-4-1.791-4-4s1.791-4,4-4
	c2.209,0,4,1.791,4,4S323.209,203.999,321,203.999z M321,196.999c-1.657,0-3,1.343-3,3c0,1.657,1.343,3,3,3c1.657,0,3-1.343,3-3
	C324,198.341,322.657,196.999,321,196.999z"/>
<path style="fill-rule:evenodd;clip-rule:evenodd;" d="M421.994,201.5c0.001,1.32-0.927,2.805-2.471,3.724
	c-2.041,1.216-4.377,0.982-5.219-0.522c-0.841-1.504,0.131-3.71,2.171-4.926c1.626-0.97,3.428-1.003,4.524-0.222v-7.554h1v9.5
	H421.994z M420.838,200.764c-0.543-0.996-2.254-1.026-3.821-0.068c-1.567,0.958-2.398,2.542-1.855,3.539s2.253,1.026,3.821,0.068
	C420.55,203.344,421.381,201.76,420.838,200.764z M418.5,196h-9c-0.276,0-0.5-0.224-0.5-0.5c0-0.276,0.224-0.5,0.5-0.5h9
	c0.276,0,0.5,0.224,0.5,0.5C419,195.776,418.776,196,418.5,196z M418.5,193h-9c-0.276,0-0.5-0.224-0.5-0.5s0.224-0.5,0.5-0.5h9
	c0.276,0,0.5,0.224,0.5,0.5S418.776,193,418.5,193z M409.5,198h6c0.276,0,0.5,0.224,0.5,0.5c0,0.276-0.224,0.5-0.5,0.5h-6
	c-0.276,0-0.5-0.224-0.5-0.5C409,198.224,409.224,198,409.5,198z M409.5,201h3c0.276,0,0.5,0.224,0.5,0.5c0,0.276-0.224,0.5-0.5,0.5
	h-3c-0.276,0-0.5-0.224-0.5-0.5C409,201.224,409.224,201,409.5,201z"/>
<path style="fill-rule:evenodd;clip-rule:evenodd;" d="M85,204.999c-0.306,0-0.607-0.018-0.904-0.047L80,206.999v-3.54
	c-1.828-1.283-3-3.25-3-5.459c0-3.866,3.582-7,8-7c4.418,0,8,3.134,8,7S89.418,204.999,85,204.999z M85,191.999
	c-3.866,0-7,2.686-7,6c0,2.212,1.413,4.123,3.491,5.164L81,202.999v2.5l3-1.5l-0.352-0.117c0.438,0.073,0.889,0.117,1.352,0.117
	c3.866,0,7-2.687,7-6C92,194.685,88.866,191.999,85,191.999z"/>
<path style="fill-rule:evenodd;clip-rule:evenodd;" d="M416,254.999c-4.418,0-8-3.582-8-8s3.582-8,8-8c4.418,0,8,3.582,8,8
	S420.418,254.999,416,254.999z M422.766,248.707l-3.927-0.779c-0.125,0.38-0.329,0.722-0.582,1.019l2.869,2.793
	C421.902,250.894,422.476,249.857,422.766,248.707z M409,246.999c0,3.866,3.134,7,7,7c1.66,0,3.176-0.584,4.371-1.552l-2.914-2.836
	c-0.431,0.244-0.925,0.388-1.457,0.388c-1.602,0-2.898-1.258-2.984-2.838l-3.952-0.803C409.045,246.572,409,246.779,409,246.999z
	 M418,246.999c0-1.104-0.896-2-2-2s-2,0.896-2,2s0.896,2,2,2S418,248.104,418,246.999z M409.217,245.349l3.921,0.797
	c0.094-0.314,0.238-0.607,0.422-0.87l-2.84-2.833C410.011,243.269,409.482,244.255,409.217,245.349z M416,239.999
	c-1.751,0-3.334,0.658-4.557,1.723l2.839,2.833c0.485-0.346,1.075-0.555,1.718-0.555c1.629,0,2.948,1.301,2.992,2.919l3.938,0.781
	c0.024-0.234,0.071-0.461,0.071-0.701C423,243.133,419.866,239.999,416,239.999z"/>
<path style="fill-rule:evenodd;clip-rule:evenodd;" d="M229,252.999h-5.5c-2.485,0-4.5-2.015-4.5-4.5c0-2.485,2.015-4.5,4.5-4.5
	c0.108,0,0.209,0.024,0.315,0.032c1.035-1.803,2.957-3.032,5.185-3.032c3.313,0,6,2.686,6,6
	C235,250.313,232.313,252.999,229,252.999z M229,241.999c-2.097,0-3.886,1.293-4.628,3.123c-0.28-0.072-0.569-0.123-0.872-0.123
	c-1.933,0-3.5,1.567-3.5,3.5c0,1.762,1.306,3.205,3,3.45v0.05h7v-0.101c2.282-0.463,4-2.48,4-4.899
	C234,244.237,231.761,241.999,229,241.999z"/>
<path style="fill-rule:evenodd;clip-rule:evenodd;" d="M184,251.632v-1.055c1.764-0.772,3-2.529,3-4.578c0-2.762-2.239-5-5-5
	c-2.097,0-3.886,1.293-4.628,3.123c-0.28-0.072-0.569-0.123-0.872-0.123c-1.933,0-3.5,1.567-3.5,3.5c0,1.762,1.306,3.205,3,3.45v1
	c-2.247-0.251-4-2.136-4-4.45c0-2.485,2.015-4.5,4.5-4.5c0.108,0,0.209,0.024,0.315,0.032c1.035-1.803,2.957-3.032,5.185-3.032
	c3.313,0,6,2.687,6,6C188,248.607,186.325,250.805,184,251.632z M178.029,250.854c0.007-0.024,0.012-0.047,0.023-0.069
	c0.006-0.015,0.007-0.03,0.015-0.044l2-3.488c0.138-0.241,0.444-0.324,0.683-0.185c0.239,0.139,0.321,0.447,0.183,0.688
	l-1.573,2.743H181c0.013,0,0.024,0.006,0.037,0.008c0.025,0.001,0.048,0.009,0.073,0.015c0.042,0.01,0.082,0.021,0.119,0.04
	c0.007,0.003,0.014,0.003,0.021,0.007c0.013,0.007,0.021,0.021,0.033,0.029c0.036,0.025,0.068,0.052,0.096,0.085
	c0.016,0.019,0.027,0.039,0.04,0.06c0.021,0.033,0.038,0.065,0.05,0.103c0.01,0.03,0.014,0.059,0.019,0.09
	c0.003,0.022,0.013,0.041,0.013,0.063c0,0.011-0.006,0.02-0.006,0.031c-0.002,0.039-0.012,0.075-0.023,0.113
	c-0.007,0.024-0.013,0.048-0.023,0.07c-0.006,0.014-0.006,0.029-0.014,0.043l-2,3.489c-0.138,0.241-0.444,0.323-0.683,0.184
	s-0.321-0.447-0.183-0.688l1.572-2.742H178.5c-0.014,0-0.025-0.007-0.038-0.008c-0.024-0.002-0.047-0.009-0.071-0.014
	c-0.042-0.01-0.083-0.021-0.121-0.041c-0.006-0.004-0.014-0.003-0.021-0.007c-0.013-0.007-0.021-0.02-0.033-0.029
	c-0.036-0.025-0.068-0.052-0.097-0.086c-0.016-0.019-0.027-0.039-0.04-0.059c-0.021-0.033-0.038-0.066-0.05-0.104
	c-0.01-0.029-0.014-0.059-0.018-0.089c-0.003-0.021-0.013-0.041-0.013-0.063c0-0.011,0.005-0.021,0.006-0.031
	C178.008,250.929,178.018,250.893,178.029,250.854z"/>
<path style="fill-rule:evenodd;clip-rule:evenodd;" d="M134,250.999c-0.17,0-0.334-0.021-0.5-0.035v0.035h-5
	c-2.485,0-4.5-2.015-4.5-4.5s2.015-4.5,4.5-4.5c0.108,0,0.209,0.024,0.315,0.032c1.035-1.803,2.957-3.032,5.185-3.032
	c3.313,0,6,2.687,6,6C140,248.313,137.313,250.999,134,250.999z M134,239.999c-2.096,0-3.886,1.293-4.628,3.123
	c-0.28-0.072-0.569-0.123-0.872-0.123c-1.933,0-3.5,1.567-3.5,3.5c0,1.933,1.567,3.5,3.5,3.5h5v-0.043
	c0.166,0.017,0.329,0.043,0.5,0.043c2.761,0,5-2.238,5-5C139,242.238,136.761,239.999,134,239.999z M130.984,248.963
	c0.017,0.013,0.037,0.023,0.055,0.036h-0.098C130.954,248.986,130.971,248.976,130.984,248.963z M130.001,255.004h-1.003v-3.01
	h1.003V255.004z M133.001,255.004h-1.003v-3.01h1.003V255.004z M136.001,255.004h-1.003v-3.01h1.003V255.004z"/>
<path style="fill-rule:evenodd;clip-rule:evenodd;" d="M87,250.999h-5.5c-2.485,0-4.5-2.015-4.5-4.5s2.015-4.5,4.5-4.5
	c0.108,0,0.209,0.024,0.315,0.032c1.035-1.803,2.957-3.032,5.185-3.032c3.313,0,6,2.687,6,6C93,248.313,90.313,250.999,87,250.999z
	 M87,239.999c-2.097,0-3.886,1.293-4.628,3.123c-0.28-0.072-0.569-0.123-0.872-0.123c-1.933,0-3.5,1.567-3.5,3.5
	c0,1.762,1.306,3.205,3,3.45v0.05h7v-0.101c2.282-0.463,4-2.48,4-4.899C92,242.238,89.761,239.999,87,239.999z M83.001,253.004
	h-1.003v-1.01h1.003V253.004z M84.001,255.004h-1.003v-1.01h1.003V255.004z M86.001,253.004h-1.003v-1.01h1.003V253.004z
	 M87.001,255.004h-1.003v-1.01h1.003V255.004z M89.001,253.004h-1.003v-1.01h1.003V253.004z"/>
<path style="fill-rule:evenodd;clip-rule:evenodd;" d="M328.969,253.499c0,0.276-0.224,0.5-0.499,0.5h-14.971
	c-0.276,0-0.499-0.224-0.499-0.5v-12c0-0.003,0.002-0.006,0.002-0.01c0-0.007,0.003-0.012,0.003-0.019
	c0.007-0.116,0.052-0.221,0.125-0.302c0.008-0.009,0.004-0.022,0.013-0.031c0.011-0.011,0.028-0.007,0.04-0.017
	c0.075-0.063,0.167-0.102,0.27-0.112c0.019-0.002,0.034-0.01,0.053-0.01h14.957c0.019,0,0.034,0.008,0.053,0.01
	c0.103,0.01,0.195,0.049,0.27,0.112c0.012,0.01,0.028,0.005,0.04,0.017c0.008,0.009,0.005,0.022,0.013,0.031
	c0.073,0.082,0.118,0.186,0.125,0.302c0,0.007,0.004,0.012,0.004,0.019c0,0.003,0.002,0.006,0.002,0.01V253.499z M313.998,252.499
	c0,0.276,0.223,0.5,0.499,0.5h12.975c0.275,0,0.499-0.224,0.499-0.5v-9.982l-6.618,5.308c-0.006,0.008-0.003,0.019-0.011,0.026
	c-0.099,0.099-0.228,0.143-0.357,0.14c-0.129,0.003-0.259-0.041-0.358-0.14c-0.007-0.007-0.004-0.019-0.011-0.026l-6.618-5.308
	V252.499z M320.984,246.869l6.072-4.87h-12.144L320.984,246.869z"/>
<path style="fill-rule:evenodd;clip-rule:evenodd;" d="M275.5,255.245c0,0-8-6.493-8-9.493c0-2.761,1.238-5,4-5
	c1.5,0,3.5,1.5,4,2.007c0.5-0.507,2.5-2.007,4-2.007c2.761,0,4,2.239,4,5C283.5,248.752,275.5,255.245,275.5,255.245z
	 M279.5,241.752c-1.057,0-2.784,1.198-3.288,1.709l-0.712,0.721l-0.712-0.721c-0.504-0.512-2.231-1.709-3.288-1.709
	c-2.708,0-3,2.797-3,4c0,1.628,3.902,5.585,7,8.195c2.471-2.082,5.448-5.019,6.554-6.948H279.5c-0.009,0-0.017-0.004-0.025-0.005
	c-0.02-0.002-0.038-0.008-0.058-0.012c-0.156-0.027-0.286-0.121-0.357-0.258l-0.922-0.904l-1.705,3.437
	c-0.009,0.015-0.024,0.024-0.035,0.038c-0.01,0.012-0.02,0.023-0.031,0.034c-0.085,0.094-0.199,0.149-0.322,0.161
	c-0.03,0.004-0.058,0.005-0.088,0.006c-0.01-0.001-0.019,0-0.029-0.002c-0.186-0.005-0.366-0.081-0.465-0.229l-1.231-2.267H272
	c-0.276,0-0.5-0.224-0.5-0.5s0.224-0.5,0.5-0.5h2.484c0.004,0,0.009,0,0.014,0h0.002h0c0.21-0.018,0.423,0.066,0.536,0.233
	l0.935,1.722l1.595-3.214c0.019-0.032,0.047-0.053,0.071-0.079c0.02-0.021,0.036-0.047,0.058-0.063
	c0.015-0.012,0.034-0.016,0.05-0.025c0.039-0.022,0.077-0.046,0.12-0.057c0.125-0.034,0.263-0.021,0.384,0.046
	c0.044,0.025,0.053,0.075,0.086,0.109l1.354,1.328h2.776c0.016-0.085,0.033-0.171,0.033-0.247
	C282.5,244.549,282.208,241.752,279.5,241.752z"/>
<path style="fill-rule:evenodd;clip-rule:evenodd;" d="M368,252.999l-5,4v-16h10v16L368,252.999z M372,241.999h-8v13l4-3.5l4,3.5
	V241.999z"/>
<path style="fill-rule:evenodd;clip-rule:evenodd;" d="M185,303.999h-9c-0.552,0-1-0.447-1-1v-10.5l5.5-4.5l5.5,4.5v10.5
	C186,303.551,185.552,303.999,185,303.999z M185,292.999l-4.5-4l-4.5,4v9.5c0,0.276,0.224,0.5,0.5,0.5h8c0.276,0,0.5-0.224,0.5-0.5
	V292.999z M180.5,294.999c-1.104,0-2-0.896-2-2s0.896-2,2-2s2,0.895,2,2S181.604,294.999,180.5,294.999z M180.5,291.999
	c-0.552,0-1,0.447-1,1s0.448,1,1,1s1-0.448,1-1S181.052,291.999,180.5,291.999z M180,301.999h-1v-5h1V301.999z M182,301.999h-1v-5h1
	V301.999z"/>
<path style="fill-rule:evenodd;clip-rule:evenodd;" d="M137,303.999h-9c-0.552,0-1-0.448-1-1v-10.5l5.5-4.5l5.5,4.5v10.5
	C138,303.551,137.552,303.999,137,303.999z M137,292.999l-4.5-4l-4.5,4v9.5c0,0.276,0.224,0.5,0.5,0.5h8c0.276,0,0.5-0.224,0.5-0.5
	V292.999z M130,300.999h5v1h-5V300.999z M132.5,294.999c-1.104,0-2-0.896-2-2c0-1.104,0.896-2,2-2s2,0.896,2,2
	C134.5,294.104,133.604,294.999,132.5,294.999z M132.5,291.999c-0.552,0-1,0.448-1,1c0,0.553,0.448,1,1,1s1-0.447,1-1
	C133.5,292.446,133.052,291.999,132.5,291.999z"/>
<path style="fill-rule:evenodd;clip-rule:evenodd;" d="M90,303.999H80c-0.552,0-1-0.448-1-1v-12c0-0.552,0.448-1,1-1h2.05
	c0.231-1.141,1.24-2,2.45-2h1c1.209,0,2.218,0.858,2.45,2H90c0.552,0,1,0.447,1,1v12C91,303.551,90.552,303.999,90,303.999z
	 M85.5,288.999h-1c-0.651,0-1.192,0.42-1.399,1h3.798C86.692,289.419,86.151,288.999,85.5,288.999z M90,291.499
	c0-0.276-0.224-0.5-0.5-0.5H88v3h-1v-3h-4v3h-1v-3h-1.5c-0.276,0-0.5,0.224-0.5,0.5v8.5h10V291.499z M90,300.999H80v1.5
	c0,0.277,0.224,0.5,0.5,0.5h9c0.276,0,0.5-0.224,0.5-0.5V300.999z"/>
<path style="fill-rule:evenodd;clip-rule:evenodd;" d="M373.856,292.788l-5.481,5.987c-0.017,0.025-0.011,0.058-0.033,0.081
	c-0.099,0.099-0.23,0.142-0.359,0.136c-0.128,0.005-0.258-0.038-0.356-0.136c-0.022-0.022-0.016-0.055-0.033-0.079l-5.481-5.987
	c-0.187-0.187-0.187-0.49,0-0.677c0.187-0.187,0.488-0.187,0.675,0l5.196,5.676l5.197-5.676c0.187-0.187,0.489-0.187,0.675,0
	S374.043,292.601,373.856,292.788z"/>
<path style="fill-rule:evenodd;clip-rule:evenodd;" d="M324.492,295.985c0.005,0.128-0.039,0.258-0.137,0.356
	c-0.021,0.021-0.054,0.016-0.079,0.032l-5.987,5.482c-0.187,0.187-0.49,0.187-0.677,0c-0.187-0.187-0.187-0.489,0-0.675l5.676-5.196
	l-5.676-5.197c-0.187-0.187-0.187-0.489,0-0.675c0.187-0.186,0.49-0.186,0.677,0l5.986,5.48c0.025,0.017,0.059,0.011,0.081,0.034
	C324.456,295.725,324.498,295.856,324.492,295.985z"/>
<path style="fill-rule:evenodd;clip-rule:evenodd;" d="M281.356,298.856c-0.187,0.187-0.489,0.187-0.675,0l-5.197-5.677
	l-5.196,5.676c-0.187,0.187-0.489,0.187-0.675,0c-0.187-0.188-0.187-0.49,0-0.677l5.481-5.987c0.017-0.024,0.011-0.057,0.033-0.079
	c0.098-0.098,0.228-0.142,0.356-0.137c0.129-0.006,0.26,0.037,0.359,0.136c0.022,0.022,0.016,0.056,0.033,0.081l5.481,5.987
	C281.543,298.366,281.543,298.668,281.356,298.856z"/>
<path style="fill-rule:evenodd;clip-rule:evenodd;" d="M230.856,290.787l-5.677,5.197l5.676,5.196c0.187,0.187,0.187,0.489,0,0.675
	c-0.187,0.187-0.49,0.187-0.676,0l-5.987-5.482c-0.025-0.017-0.057-0.011-0.079-0.032c-0.098-0.098-0.142-0.228-0.137-0.356
	c-0.006-0.129,0.037-0.261,0.136-0.359c0.022-0.022,0.056-0.017,0.081-0.034l5.986-5.48c0.187-0.186,0.49-0.186,0.677,0
	C231.043,290.298,231.043,290.601,230.856,290.787z"/>
<path style="fill-rule:evenodd;clip-rule:evenodd;" d="M421,293.999h-2v4h2c1.657,0,3,1.343,3,3s-1.343,3-3,3s-3-1.344-3-3l0,0v-2
	h-4v2l0,0c0,1.657-1.343,3-3,3c-1.657,0-3-1.344-3-3s1.343-3,3-3h2v-4h-2c-1.657,0-3-1.343-3-3s1.343-3,3-3c1.657,0,3,1.343,3,3l0,0
	l0,0v2h4v-2l0,0l0,0c0-1.657,1.343-3,3-3c1.657,0,3,1.343,3,3S422.657,293.999,421,293.999z M419,300.999c0,1.105,0.896,2,2,2
	s2-0.896,2-2c0-1.104-0.896-2-2-2h-2V300.999z M413,290.999c0-1.104-0.896-2-2-2s-2,0.895-2,2c0,1.105,0.896,2,2,2h2V290.999z
	 M413,298.999h-2c-1.104,0-2,0.896-2,2c0,1.105,0.896,2,2,2s2-0.896,2-2V298.999z M418,293.999h-4v4h4V293.999z M421,288.999
	c-1.104,0-2,0.895-2,2v2h2c1.104,0,2-0.895,2-2C423,289.894,422.104,288.999,421,288.999z"/>
<path style="fill-rule:evenodd;clip-rule:evenodd;" d="M420,352v-4h4v4H420z M423,348.999h-2V351h2V348.999z M420,341.999h4v4h-4
	V341.999z M421,344.999h2v-2h-2V344.999z M420,335.999h4v4h-4V335.999z M421,338.999h2v-2h-2V338.999z M414,347.999h4v4h-4V347.999z
	 M415,351h2v-2.001h-2V351z M414,341.999h4v4h-4V341.999z M415,344.999h2v-2h-2V344.999z M414,335.999h4v4h-4V335.999z M415,338.999
	h2v-2h-2V338.999z M408,347.999h4v4h-4V347.999z M409,351h2v-2.001h-2V351z M408,341.999h4v4h-4V341.999z M409,344.999h2v-2h-2
	V344.999z M408,335.999h4v4h-4V335.999z M409,338.999h2v-2h-2V338.999z"/>
<path style="fill-rule:evenodd;clip-rule:evenodd;" d="M375,350.999h-4c-0.552,0-1-0.448-1-1v-4c0-0.552,0.448-1,1-1h4
	c0.552,0,1,0.448,1,1v4C376,350.551,375.552,350.999,375,350.999z M375,346.498c0-0.276-0.224-0.5-0.5-0.5h-3
	c-0.276,0-0.5,0.224-0.5,0.5v3c0,0.276,0.224,0.5,0.5,0.5h3c0.276,0,0.5-0.224,0.5-0.5V346.498z M375,342.999h-4
	c-0.552,0-1-0.448-1-1v-4c0-0.553,0.448-1.001,1-1.001h4c0.552,0,1,0.448,1,1.001v4C376,342.551,375.552,342.999,375,342.999z
	 M375,338.498c0-0.276-0.224-0.499-0.5-0.499h-3c-0.276,0-0.5,0.223-0.5,0.499v3c0,0.276,0.224,0.5,0.5,0.5h3
	c0.276,0,0.5-0.225,0.5-0.5V338.498z M367,350.999h-4c-0.553,0-1-0.448-1-1v-4c0-0.552,0.447-1,1-1h4c0.552,0,1,0.448,1,1v4
	C368,350.551,367.552,350.999,367,350.999z M367,346.498c0-0.276-0.224-0.5-0.5-0.5h-3c-0.276,0-0.5,0.224-0.5,0.5v3
	c0,0.276,0.224,0.5,0.5,0.5h3c0.276,0,0.5-0.224,0.5-0.5V346.498z M367,342.999h-4c-0.553,0-1-0.448-1-1v-4
	c0-0.553,0.447-1.001,1-1.001h4c0.552,0,1,0.448,1,1.001v4C368,342.551,367.552,342.999,367,342.999z M367,338.498
	c0-0.276-0.224-0.499-0.5-0.499h-3c-0.276,0-0.5,0.223-0.5,0.499v3c0,0.276,0.224,0.5,0.5,0.5h3c0.276,0,0.5-0.225,0.5-0.5V338.498z
	"/>
<path style="fill-rule:evenodd;clip-rule:evenodd;" d="M328.857,351.855c-0.186,0.187-0.487,0.187-0.673,0l-4.457-4.457
	c-1.139,0.983-2.604,1.6-4.227,1.6c-3.59,0-6.5-2.91-6.5-6.5c0-3.59,2.91-6.5,6.5-6.5s6.5,2.91,6.5,6.5
	c0,1.623-0.616,3.088-1.6,4.228l4.457,4.457C329.042,351.368,329.042,351.669,328.857,351.855z M325,342.499
	c0-3.037-2.463-5.5-5.5-5.5c-3.038,0-5.5,2.463-5.5,5.5c0,3.038,2.462,5.5,5.5,5.5C322.537,347.999,325,345.536,325,342.499z"/>
<path style="fill-rule:evenodd;clip-rule:evenodd;" d="M282,343.999c0,1.05-0.812,1.901-1.841,1.983
	c-0.111,0.343-0.245,0.671-0.408,0.986c0.661,0.786,0.646,1.948-0.094,2.687s-1.901,0.754-2.687,0.094
	c-0.315,0.163-0.643,0.297-0.986,0.408c-0.083,1.029-0.934,1.841-1.984,1.841c-1.05,0-1.902-0.812-1.984-1.841
	c-0.343-0.111-0.67-0.245-0.986-0.408c-0.786,0.66-1.948,0.645-2.687-0.094s-0.754-1.901-0.094-2.687
	c-0.163-0.315-0.298-0.643-0.408-0.986c-1.029-0.083-1.841-0.933-1.841-1.983s0.813-1.902,1.841-1.984
	c0.11-0.343,0.245-0.671,0.408-0.986c-0.66-0.786-0.646-1.947,0.094-2.687s1.901-0.754,2.687-0.094
	c0.315-0.164,0.643-0.298,0.986-0.409c0.083-1.029,0.934-1.84,1.984-1.84c1.05,0,1.901,0.812,1.984,1.84
	c0.343,0.111,0.67,0.245,0.986,0.409c0.786-0.66,1.948-0.645,2.687,0.094s0.754,1.901,0.094,2.687
	c0.163,0.315,0.297,0.643,0.408,0.986C281.188,342.097,282,342.948,282,343.999z M279.408,342.999
	c-0.143-0.774-0.457-1.484-0.887-2.107l0.429-0.428c0.39-0.391,0.39-1.023,0-1.414c-0.391-0.391-1.024-0.391-1.415,0l-0.432,0.431
	c-0.623-0.427-1.332-0.739-2.104-0.881v-0.601c0-0.553-0.448-1-1-1c-0.553,0-1,0.447-1,1v0.601
	c-0.771,0.142-1.481,0.454-2.104,0.881l-0.431-0.431c-0.391-0.391-1.024-0.391-1.415,0c-0.39,0.391-0.39,1.023,0,1.414l0.429,0.428
	c-0.431,0.623-0.744,1.333-0.887,2.107H268c-0.552,0-1,0.448-1,1s0.447,1,1,1h0.592c0.143,0.773,0.457,1.484,0.887,2.107
	l-0.429,0.429c-0.39,0.391-0.39,1.023,0,1.414c0.391,0.391,1.024,0.391,1.415,0l0.431-0.431c0.623,0.427,1.332,0.739,2.104,0.881
	v0.601c0,0.553,0.448,1,1,1c0.552,0,1-0.448,1-1v-0.601c0.771-0.142,1.481-0.454,2.104-0.881l0.431,0.431
	c0.391,0.391,1.024,0.391,1.415,0c0.39-0.391,0.39-1.023,0-1.414l-0.429-0.429c0.431-0.623,0.744-1.334,0.887-2.107H280
	c0.552,0,1-0.448,1-1s-0.448-1-1-1H279.408z M274,346.999c-1.657,0-3-1.344-3-3c0-1.657,1.343-3,3-3c1.657,0,3,1.343,3,3
	C277,345.655,275.657,346.999,274,346.999z M274,341.999c-1.105,0-2,0.896-2,2s0.896,2,2,2c1.104,0,2-0.895,2-2
	S275.104,341.999,274,341.999z"/>
<path style="fill-rule:evenodd;clip-rule:evenodd;" d="M226.361,349.856c-1.578,1.535-4.116,1.528-5.684-0.021
	c-1.569-1.55-1.575-4.056-0.021-5.615l-0.001-0.001l4.995-4.933l0.713-0.705l0.713-0.705c1.182-1.167,3.099-1.167,4.281,0
	s1.182,3.061,0,4.228l-0.713,0.705l-0.713,0.705l-2.503,2.473l-0.899,0.888l-1.592,1.573l-0.002-0.002
	c-0.79,0.756-2.049,0.751-2.83-0.02c-0.78-0.771-0.785-2.015-0.02-2.795l-0.002-0.002l0.713-0.704l0.878-0.869l0.899-0.888
	l1.076-1.063l0.837-0.827l0.81-0.799l0.493-0.487l0.713,0.706l-0.691,0.682l-0.736,0.727l-1.498,1.479l-0.771,0.762l-0.761,0.751
	l-0.538,0.531l-0.713,0.704c-0.395,0.39-0.395,1.021,0,1.41c0.394,0.389,1.033,0.389,1.427,0l1.251-1.236l0.761-0.751l0.771-0.761
	l0.785-0.775l1.262-1.246l0.165-0.164l0.714-0.705l0.713-0.705l-0.002-0.001c0.008-0.007,0.017-0.013,0.024-0.021
	c0.788-0.778,0.788-2.041,0-2.819c-0.789-0.778-2.066-0.778-2.854,0c-0.008,0.008-0.014,0.016-0.021,0.023l-0.001-0.002
	l-0.713,0.705l-0.713,0.705l-0.166,0.163l-1.262,1.246l-1.662,1.642l-1.906,1.883c-1.182,1.167-1.182,3.06,0,4.228
	s3.099,1.168,4.281,0l1.905-1.882l4.516-4.46l0.713-0.705l0.714,0.705l-0.714,0.705l-6.421,6.343L226.361,349.856z"/>
<path style="fill-rule:evenodd;clip-rule:evenodd;" d="M185,340.999v10c0,0.552-0.448,1-1,1h-9c-0.553,0-1-0.448-1-1v-10
	c-0.553,0-1-0.447-1-1v-1c0-0.553,0.447-1,1-1h3v-1.5c0-0.276,0.224-0.5,0.5-0.5h4c0.276,0,0.5,0.224,0.5,0.5v1.5h3
	c0.552,0,1,0.447,1,1v1C186,340.551,185.552,340.999,185,340.999z M175,341.499v0.5v8.5c0,0.276,0.224,0.5,0.5,0.5h8
	c0.276,0,0.5-0.224,0.5-0.5v-8.5v-0.5v-0.5h-0.5h-8H175V341.499z M181,336.999h-3v1h3V336.999z M184.5,338.999h-3h-4h-3
	c-0.276,0-0.5,0.224-0.5,0.5s0.224,0.5,0.5,0.5h0.5h9h0.5c0.276,0,0.5-0.224,0.5-0.5S184.776,338.999,184.5,338.999z M178,349.999
	h-1v-7h1V349.999z M180,349.999h-1v-7h1V349.999z M182,349.999h-1v-7h1V349.999z"/>
<path style="fill-rule:evenodd;clip-rule:evenodd;" d="M139,344.561v3.438l0,0v1l0,0v3h-14v-3v-1V344.4
	c-0.625-0.574-1.002-1.485-1.005-2.401H124l2-6h12l2,6h0.005C140.001,343.01,139.76,344.009,139,344.561z M126,350.999h12v-2h-12
	V350.999z M126,347.999h12v-3.05c-0.159,0.024-0.317,0.049-0.5,0.049c-0.751,0-1.539-0.377-2-1c-0.404,0.615-0.946,1-1.74,1
	c-0.715,0-1.346-0.484-1.76-1c-0.415,0.515-1.045,1-1.761,1c-0.794,0-1.335-0.384-1.739-1c-0.461,0.623-1.282,1-2.033,1
	c-0.163,0-0.317-0.024-0.467-0.06V347.999z M137.333,336.999h-10.667l-1.333,4h13.333L137.333,336.999z M125.012,341.999
	c0.168,0.861,0.753,2,1.456,2c0.703,0,1.533,0,1.533-1h1c0,0,0,1,1.239,1c1.261,0,1.232-1,1.232-1h1.057c0,0-0.028,1,1.232,1
	c1.24,0,1.232-1,1.232-1H136c0,0,0,1,1.532,1c1.468,0,1.456-2,1.456-2H125.012z"/>
<path style="fill-rule:evenodd;clip-rule:evenodd;" d="M92.985,341.571c-0.002,0.017,0.011,0.032,0.006,0.049l-2.006,6.808
	c0.004,0.024,0.015,0.046,0.015,0.071c0,0.248-0.184,0.444-0.421,0.484c-0.025,0.007-0.05,0.013-0.076,0.015
	c-0.001,0-0.002,0.001-0.003,0.001h-7c-0.007,0-0.013-0.004-0.02-0.004c-0.244,0.005-0.471-0.133-0.537-0.359l-1.813-6.807
	c-0.079-0.088-0.13-0.203-0.13-0.33c0-0.033,0.012-0.061,0.019-0.092l-0.908-3.409H77.5c-0.276,0-0.5-0.224-0.5-0.5
	c0-0.276,0.224-0.5,0.5-0.5h3c0.007,0,0.013,0.004,0.019,0.004c0.244-0.005,0.471,0.133,0.537,0.359l0.969,3.637h10.44
	c0.007-0.001,0.015,0.001,0.022,0H92.5c0.002,0,0.004,0.001,0.006,0.001c0.05-0.003,0.1-0.004,0.15,0.01
	c0.015,0.004,0.02,0.022,0.034,0.027c0.081,0.033,0.145,0.091,0.198,0.16c0.024,0.032,0.046,0.055,0.062,0.092
	c0.03,0.064,0.05,0.134,0.05,0.21C93,341.525,92.989,341.546,92.985,341.571z M82.291,341.999l1.598,6h6.231l1.768-6H82.291z
	 M84,349.999c0.552,0,1,0.447,1,1c0,0.552-0.448,1-1,1c-0.553,0-1-0.448-1-1C83,350.446,83.447,349.999,84,349.999z M89,349.999
	c0.552,0,1,0.447,1,1c0,0.552-0.448,1-1,1c-0.553,0-1-0.448-1-1C88,350.446,88.447,349.999,89,349.999z"/>
</svg>
