<?xml version="1.0" encoding="iso-8859-1"?>
<!-- Generator: Adobe Illustrator 16.0.0, SVG Export Plug-In . SVG Version: 6.00 Build 0)  -->
<!DOCTYPE svg PUBLIC "-//W3C//DTD SVG 1.1//EN" "http://www.w3.org/Graphics/SVG/1.1/DTD/svg11.dtd">
<svg version="1.1" id="Layer_1" xmlns="http://www.w3.org/2000/svg" xmlns:xlink="http://www.w3.org/1999/xlink" x="0px" y="0px"
	 width="800px" height="710px" viewBox="0 0 800 710" style="enable-background:new 0 0 800 710;" xml:space="preserve">
<path style="fill-rule:evenodd;clip-rule:evenodd;" d="M397.667,639h4.67c0.368,0,0.667,0.256,0.667,0.574v0.86
	c0,0.316-0.299,0.573-0.667,0.573h-4.67c-0.369,0-0.667-0.257-0.667-0.573v-0.86C396.999,639.256,397.298,639,397.667,639z
	 M396.999,635.564c0-0.316,0.299-0.573,0.667-0.573h4.67c0.368,0,0.667,0.257,0.667,0.573v0.861c0,0.316-0.299,0.573-0.667,0.573
	h-4.67c-0.369,0-0.667-0.257-0.667-0.573V635.564z M415,632.357v10.821v5.256h0c0,0.004,0,0.007,0,0.011v0.299h-0.018
	c-0.186,2.945-2.974,5.256-6.168,5.256c0,0-15.394,0-19.559,0c-0.703,0-0.305-0.463-0.003-0.767c1.12-1.123,2.897-2.842,3.926-3.874
	C393.717,648.82,394.374,649,395,649c2.607,0,8.723,0,12,0c1.708,0,3-1.292,3-3v-16c-0.006-1.662-1.325-2.76-3-3c0.4,0.07-14,0-14,0
	c-1.708,0-3,2.292-3,4c0-4.714,0,15,0,15s0.181,0.889-0.358,1.427c-1.032,1.032-2.751,2.661-3.875,3.784
	c-0.303,0.303-0.767,0.702-0.767-0.004c0-4.175,0-23.642,0-23.642h0c0-2.995,2.993-5.403,6.186-5.551V622h17.629
	c3.306,0,6.186,2.474,6.186,5.565h0V632.357z"/>
<path d="M289.708,685v-5.474h6.248v-1.333h-6.248v-3.871h6.374v-1.333h-7.868V685H289.708z"/>
<path d="M299.428,685v-6.158c0.396-0.702,1.53-1.387,2.376-1.387c0.198,0,0.36,0.018,0.522,0.036v-1.386
	c-1.188,0-2.196,0.684-2.898,1.584v-1.387h-1.351V685H299.428z"/>
<path d="M307.96,685.216c1.404,0,2.575-0.486,3.457-1.35l-0.648-0.882c-0.702,0.72-1.693,1.116-2.701,1.116
	c-1.873,0-3.007-1.368-3.115-3.007h7.022v-0.342c0-2.61-1.548-4.663-4.177-4.663c-2.484,0-4.285,2.035-4.285,4.555
	C303.513,683.361,305.367,685.216,307.96,685.216z M310.643,680.084h-5.708c0.072-1.314,0.99-2.881,2.845-2.881
	C309.761,677.204,310.625,678.806,310.643,680.084z"/>
<path d="M318.094,685.216c1.404,0,2.575-0.486,3.457-1.35l-0.648-0.882c-0.703,0.72-1.693,1.116-2.701,1.116
	c-1.873,0-3.007-1.368-3.115-3.007h7.022v-0.342c0-2.61-1.548-4.663-4.177-4.663c-2.485,0-4.285,2.035-4.285,4.555
	C313.646,683.361,315.501,685.216,318.094,685.216z M320.777,680.084h-5.708c0.072-1.314,0.99-2.881,2.845-2.881
	C319.895,677.204,320.759,678.806,320.777,680.084z"/>
<path d="M332.89,685.216c3.241,0,4.429-1.8,4.429-3.529c0-4.483-7.112-2.935-7.112-5.636c0-1.134,1.044-1.909,2.467-1.909
	c1.314,0,2.575,0.432,3.475,1.44l0.9-1.098c-1.008-1.063-2.431-1.692-4.25-1.692c-2.377,0-4.141,1.368-4.141,3.349
	c0,4.286,7.112,2.557,7.112,5.654c0,0.937-0.685,2.089-2.827,2.089c-1.692,0-2.989-0.829-3.763-1.729l-0.9,1.152
	C329.271,684.424,330.819,685.216,332.89,685.216z"/>
<path d="M346.282,685v-5.978c0-2.106-1.512-2.935-3.367-2.935c-1.422,0-2.539,0.468-3.475,1.44l0.63,0.936
	c0.774-0.846,1.621-1.206,2.665-1.206c1.261,0,2.197,0.666,2.197,1.818v1.566c-0.702-0.792-1.692-1.17-2.881-1.17
	c-1.476,0-3.025,0.9-3.025,2.863c0,1.891,1.566,2.881,3.025,2.881c1.17,0,2.179-0.414,2.881-1.206V685H346.282z M342.555,684.244
	c-1.278,0-2.161-0.792-2.161-1.909c0-1.098,0.882-1.89,2.161-1.89c0.936,0,1.854,0.36,2.376,1.062v1.657
	C344.41,683.884,343.491,684.244,342.555,684.244z"/>
<path d="M360.846,685v-6.284c0-1.747-0.846-2.629-2.431-2.629c-1.26,0-2.431,0.828-2.917,1.621c-0.252-0.9-1.008-1.621-2.323-1.621
	c-1.296,0-2.449,0.918-2.827,1.477v-1.261h-1.351V685h1.351v-6.356c0.468-0.702,1.404-1.35,2.287-1.35
	c1.152,0,1.603,0.702,1.603,1.8V685h1.351v-6.374c0.45-0.702,1.404-1.332,2.304-1.332c1.135,0,1.603,0.702,1.603,1.8V685H360.846z"
	/>
<path d="M367.828,685.216c2.287,0,3.871-1.764,3.871-4.573c0-2.827-1.584-4.555-3.871-4.555c-1.225,0-2.305,0.63-2.935,1.512v-1.296
	h-1.351v12.01h1.351v-4.627C365.613,684.64,366.639,685.216,367.828,685.216z M367.485,684.01c-1.063,0-2.125-0.648-2.593-1.404
	v-3.925c0.468-0.756,1.53-1.386,2.593-1.386c1.747,0,2.791,1.422,2.791,3.349C370.276,682.569,369.232,684.01,367.485,684.01z"/>
<path d="M375.188,685v-12.01h-1.351V685H375.188z"/>
<path d="M381.831,685.216c1.404,0,2.575-0.486,3.457-1.35l-0.648-0.882c-0.702,0.72-1.692,1.116-2.701,1.116
	c-1.873,0-3.007-1.368-3.115-3.007h7.022v-0.342c0-2.61-1.548-4.663-4.177-4.663c-2.485,0-4.285,2.035-4.285,4.555
	C377.384,683.361,379.238,685.216,381.831,685.216z M384.514,680.084h-5.708c0.072-1.314,0.99-2.881,2.845-2.881
	C383.632,677.204,384.496,678.806,384.514,680.084z"/>
<path d="M394.034,682.641v-3.943c0.468-0.756,1.531-1.404,2.611-1.404c1.747,0,2.791,1.44,2.791,3.367s-1.044,3.349-2.791,3.349
	C395.564,684.01,394.502,683.397,394.034,682.641z M394.034,685v-1.296c0.648,0.882,1.71,1.512,2.935,1.512
	c2.269,0,3.871-1.729,3.871-4.555c0-2.791-1.584-4.573-3.871-4.573c-1.17,0-2.233,0.576-2.935,1.53v-4.627h-1.35V685H394.034z"/>
<path d="M402.565,688.403c0.234,0.072,0.684,0.126,0.972,0.126c1.152-0.018,2.035-0.504,2.557-1.765l4.357-10.461h-1.458
	l-2.899,7.13l-2.881-7.13h-1.477l3.637,8.787l-0.576,1.314c-0.306,0.72-0.702,0.918-1.296,0.918c-0.216,0-0.54-0.054-0.738-0.144
	L402.565,688.403z"/>
<path d="M421.502,686.26c1.333,0,2.629-0.414,3.745-1.134l-0.324-0.468c-0.972,0.612-2.071,1.008-3.349,1.008
	c-2.989,0-5.149-2.214-5.149-5.095c0-3.367,2.971-6.446,6.464-6.446c3.061,0,5.096,2.143,5.096,5.096
	c0,2.485-1.26,3.277-1.962,3.277c-0.468,0-0.847-0.342-0.847-0.936c0-0.108,0.018-0.27,0.036-0.378l1.026-4.879h-1.224l-0.234,1.117
	c-0.342-0.774-1.134-1.405-2.305-1.405c-2.125,0-4.231,2.017-4.231,4.52c0,1.747,1.08,2.935,2.754,2.935
	c1.152,0,2.233-0.685,2.863-1.585v0.126c0.054,0.756,0.63,1.458,1.638,1.458c1.513,0,3.115-1.44,3.115-4.25
	c0-3.151-2.269-5.708-5.672-5.708c-3.745,0-7.148,3.205-7.148,7.094C415.795,683.793,418.226,686.26,421.502,686.26z
	 M421.376,682.461c-1.17,0-1.836-0.846-1.836-1.999c0-1.746,1.368-3.439,3.169-3.439c1.062,0,1.656,0.756,1.854,1.314l-0.522,2.503
	C423.519,681.597,422.601,682.461,421.376,682.461z"/>
<path d="M431.959,682.641v-3.943c0.468-0.756,1.531-1.404,2.611-1.404c1.747,0,2.791,1.44,2.791,3.367s-1.044,3.349-2.791,3.349
	C433.49,684.01,432.427,683.397,431.959,682.641z M431.959,685v-1.296c0.648,0.882,1.711,1.512,2.935,1.512
	c2.269,0,3.871-1.729,3.871-4.555c0-2.791-1.584-4.573-3.871-4.573c-1.17,0-2.233,0.576-2.935,1.53v-4.627h-1.35V685H431.959z"/>
<path d="M448.179,685v-8.697h-1.35v6.392c-0.504,0.702-1.513,1.314-2.557,1.314c-1.188,0-1.962-0.45-1.962-1.98v-5.726h-1.351v6.14
	c0,1.873,0.955,2.772,2.773,2.772c1.296,0,2.431-0.684,3.097-1.44V685H448.179z"/>
<path d="M458.529,685v-12.01h-1.35v4.627c-0.703-0.954-1.765-1.53-2.935-1.53c-2.269,0-3.871,1.782-3.871,4.573
	c0,2.827,1.603,4.555,3.871,4.555c1.224,0,2.287-0.63,2.935-1.512V685H458.529z M454.586,684.01c-1.765,0-2.809-1.422-2.809-3.349
	s1.044-3.367,2.809-3.367c1.062,0,2.125,0.648,2.593,1.404v3.925C456.71,683.379,455.648,684.01,454.586,684.01z"/>
<path d="M461.911,675.061c0.504,0,0.9-0.396,0.9-0.9c0-0.504-0.396-0.918-0.9-0.918c-0.504,0-0.918,0.414-0.918,0.918
	C460.993,674.665,461.407,675.061,461.911,675.061z M462.577,685v-8.697h-1.351V685H462.577z"/>
<path d="M467.491,685.216c0.774,0,1.26-0.234,1.602-0.558l-0.396-1.026c-0.18,0.198-0.522,0.378-0.918,0.378
	c-0.576,0-0.864-0.468-0.864-1.117v-5.401h1.764v-1.188h-1.764v-2.376h-1.369v2.376h-1.44v1.188h1.44v5.69
	C465.546,684.478,466.195,685.216,467.491,685.216z"/>
<path d="M477.356,685v-5.978c0-2.106-1.513-2.935-3.367-2.935c-1.422,0-2.539,0.468-3.475,1.44l0.63,0.936
	c0.774-0.846,1.62-1.206,2.665-1.206c1.26,0,2.197,0.666,2.197,1.818v1.566c-0.702-0.792-1.692-1.17-2.881-1.17
	c-1.477,0-3.025,0.9-3.025,2.863c0,1.891,1.566,2.881,3.025,2.881c1.17,0,2.179-0.414,2.881-1.206V685H477.356z M473.629,684.244
	c-1.278,0-2.161-0.792-2.161-1.909c0-1.098,0.882-1.89,2.161-1.89c0.937,0,1.855,0.36,2.377,1.062v1.657
	C475.484,683.884,474.565,684.244,473.629,684.244z"/>
<path d="M487.292,685v-6.104c0-1.891-0.955-2.809-2.755-2.809c-1.314,0-2.503,0.738-3.115,1.477v-1.261h-1.35V685h1.35v-6.356
	c0.522-0.702,1.513-1.35,2.575-1.35c1.17,0,1.962,0.468,1.962,2.016V685H487.292z"/>
<path d="M491.358,685v-6.158c0.396-0.702,1.53-1.387,2.376-1.387c0.198,0,0.36,0.018,0.522,0.036v-1.386
	c-1.188,0-2.197,0.684-2.899,1.584v-1.387h-1.351V685H491.358z"/>
<path d="M496.632,675.061c0.504,0,0.9-0.396,0.9-0.9c0-0.504-0.396-0.918-0.9-0.918c-0.504,0-0.918,0.414-0.918,0.918
	C495.714,674.665,496.128,675.061,496.632,675.061z M497.298,685v-8.697h-1.35V685H497.298z"/>
<path d="M511.845,685v-6.284c0-1.747-0.846-2.629-2.431-2.629c-1.261,0-2.431,0.828-2.917,1.621c-0.252-0.9-1.008-1.621-2.323-1.621
	c-1.296,0-2.449,0.918-2.827,1.477v-1.261h-1.351V685h1.351v-6.356c0.468-0.702,1.404-1.35,2.287-1.35
	c1.152,0,1.603,0.702,1.603,1.8V685h1.35v-6.374c0.45-0.702,1.405-1.332,2.305-1.332c1.134,0,1.603,0.702,1.603,1.8V685H511.845z"/>
<path style="fill-rule:evenodd;clip-rule:evenodd;" d="M150.004,559.635l-3.012,10.828c0.001,0.013,0.007,0.023,0.007,0.036
	c0,0.222-0.148,0.405-0.35,0.469c-0.083,0.034-0.172,0.047-0.264,0.03H134.5c-0.005,0-0.01-0.003-0.014-0.003
	c-0.236,0-0.452-0.135-0.516-0.354l-3.878-16.643H125.5c-0.276,0-0.5-0.224-0.5-0.5c0-0.277,0.224-0.5,0.5-0.5h5
	c0.006,0,0.01,0.003,0.016,0.003c0.235,0,0.451,0.136,0.514,0.354l1.322,5.672c0.047-0.015,0.095-0.03,0.147-0.03h16.934
	c0.072-0.015,0.147-0.018,0.223,0.003C149.919,559.076,150.075,559.359,150.004,559.635z M134.909,569.999h11.188l2.781-10h-16.299
	L134.909,569.999z M135.5,572.999c0.828,0,1.5,0.671,1.5,1.5c0,0.829-0.672,1.501-1.5,1.501s-1.5-0.672-1.5-1.501
	C134,573.67,134.671,572.999,135.5,572.999z M143.5,572.999c0.828,0,1.5,0.671,1.5,1.5c0,0.829-0.671,1.501-1.5,1.501
	s-1.5-0.672-1.5-1.501C142,573.67,142.671,572.999,143.5,572.999z"/>
<path style="fill-rule:evenodd;clip-rule:evenodd;" d="M221,561h-23v0h-1l3-8.999v-0.001L217.857,552l0-0.001h-3.607H219l3,9
	L221,561L221,561z M218.207,553h-17.414l-2.444,7h22.302L218.207,553z M198.05,561c-0.033,0.162-0.05,0.329-0.05,0.5
	c0,1.381,1.119,2.5,2.5,2.5c1.38,0,2.5-1.12,2.5-2.5c0-0.171-0.018-0.338-0.05-0.5h1.101c-0.033,0.162-0.05,0.329-0.05,0.5
	c0,1.381,1.119,2.5,2.5,2.5c1.38,0,2.5-1.12,2.5-2.5c0-0.171-0.018-0.338-0.05-0.5h1.101c-0.033,0.162-0.05,0.329-0.05,0.5
	c0,1.381,1.119,2.5,2.5,2.5c1.38,0,2.5-1.12,2.5-2.5c0-0.171-0.018-0.338-0.05-0.5h1.101c-0.033,0.162-0.05,0.329-0.05,0.5
	c0,1.381,1.119,2.5,2.5,2.5s2.5-1.12,2.5-2.5c0-0.171-0.018-0.338-0.05-0.5h1c0.023,0.165,0.05,0.329,0.05,0.5
	c0,1.394-0.821,2.587-2,3.15V577h-3V577h-7V577h-11V564.65c-1.179-0.563-2-1.756-2-3.15c0-0.171,0.027-0.335,0.051-0.5H198.05z
	 M211,576h5v-8h-5V576z M200,575.999h10V567h7v8.999h2V564.95c-0.165,0.024-0.329,0.05-0.5,0.05c-1.282,0-2.39-0.696-3-1.723
	c-0.61,1.027-1.719,1.723-3,1.723s-2.39-0.696-3-1.723c-0.61,1.027-1.719,1.723-3,1.723s-2.39-0.696-3-1.723
	c-0.61,1.027-1.719,1.723-3,1.723c-0.171,0-0.335-0.026-0.5-0.05V575.999z M208,573h-6v-5h6V573z M207,569h-4v3h4V569z"/>
<path style="fill-rule:evenodd;clip-rule:evenodd;" d="M296.462,560H296v15.414c0,0.875-0.651,1.584-1.455,1.584h-14.091
	c-0.803,0-1.455-0.708-1.455-1.584V560h-0.461c-0.85,0-1.538-0.747-1.538-1.667v-1.667c0-0.921,0.688-1.667,1.538-1.667H283v-2.169
	c0-0.46,0.358-0.833,0.8-0.833h7.4c0.442,0,0.8,0.373,0.8,0.833v2.169h4.462c0.85,0,1.538,0.746,1.538,1.667v1.667
	C298,559.252,297.312,560,296.462,560z M280,560.747v1.25v13.251c0,0.415,0.349,0.75,0.778,0.75h13.444
	c0.43,0,0.778-0.336,0.778-0.75v-13.251v-1.25V560h-15V560.747z M291,552.998h-7v2h7V552.998z M297,556.666
	c0-0.361-0.246-0.667-0.538-0.667h-17.924c-0.292,0-0.538,0.305-0.538,0.667v1.667c0,0.361,0.246,0.667,0.538,0.667h17.924
	c0.292,0,0.538-0.306,0.538-0.667V556.666z M291,562.997h1v11.001h-1V562.997z M287,562.998h1v11h-1V562.998z M283,562.997h1v11.001
	h-1V562.997z"/>
<path style="fill-rule:evenodd;clip-rule:evenodd;" d="M361.464,573.527c-2.161,2.075-6.655,1.851-8.645,0
	c-2.4-2.234-2.451-5.91,0-8.301l10.086-9.683c1.865-1.792,4.883-2.229,6.804-0.384c1.921,1.844,1.545,4.818-0.32,6.61l-10.086,9.683
	c-1.247,1.16-3.091,1.182-4.322,0c-1.231-1.182-1.208-2.954,0-4.15l9.365-8.992l0.72,0.692l-9.365,8.992
	c-0.622,0.597-0.622,2.169,0,2.766c0.72,0.692,2.26,0.598,2.882,0c0,0,15.125-14.521,10.085-9.684
	c1.441-1.383,1.375-4.213,0.309-5.237c-1.066-1.023-3.911-0.988-5.352,0.395l-10.086,9.684c-1.866,1.791-1.865,5.126,0,6.917
	c1.865,1.791,5.339,1.792,7.204,0l11.526-11.066l0.721,0.691L361.464,573.527z"/>
<path style="fill-rule:evenodd;clip-rule:evenodd;" d="M447.374,568.009h-2.061c-0.033,0.082-0.063,0.166-0.097,0.247l1.454,1.454
	c0.635,0.635,0.673,1.626,0.085,2.213l-2.835,2.835c-0.588,0.588-1.579,0.55-2.213-0.084l-1.453-1.453
	c-0.08,0.035-0.163,0.064-0.244,0.096v2.056c0,0.897-0.674,1.625-1.505,1.625h-4.01c-0.831,0-1.505-0.728-1.505-1.625v-2.055
	c-0.083-0.033-0.166-0.063-0.247-0.098l-1.451,1.451c-0.634,0.634-1.625,0.672-2.213,0.084l-2.836-2.835
	c-0.587-0.588-0.55-1.579,0.085-2.214l1.454-1.454c-0.035-0.081-0.063-0.163-0.096-0.244h-2.061c-0.898,0-1.625-0.674-1.625-1.505
	v-4.01c0-0.831,0.727-1.505,1.625-1.505h2.06c0.032-0.08,0.061-0.162,0.095-0.242l-1.452-1.452
	c-0.635-0.634-0.672-1.625-0.085-2.213l2.835-2.835c0.588-0.587,1.579-0.55,2.213,0.085l1.446,1.446
	c0.083-0.036,0.168-0.067,0.253-0.101v-2.052c0-0.897,0.674-1.625,1.505-1.625h4.01c0.831,0,1.505,0.728,1.505,1.625v2.053
	c0.083,0.033,0.168,0.063,0.25,0.099l1.447-1.447c0.635-0.635,1.626-0.673,2.213-0.085l2.835,2.836
	c0.588,0.587,0.55,1.579-0.085,2.214l-1.452,1.452c0.035,0.08,0.064,0.163,0.096,0.245h2.059c0.898,0,1.625,0.674,1.625,1.505v4.01
	C448.999,567.335,448.272,568.009,447.374,568.009z M448,562.999c0-0.552-0.448-1-1-1h-2.407c-0.155-0.506-0.37-0.984-0.612-1.446
	l1.711-1.71c0.39-0.391,0.39-1.024,0-1.414l-2.122-2.122c-0.391-0.391-1.023-0.391-1.414,0L440.463,557
	c-0.466-0.249-0.95-0.469-1.463-0.627v-2.374c0-0.553-0.448-1-1-1h-3c-0.552,0-1,0.447-1,1v2.374c-0.514,0.159-1,0.379-1.466,0.629
	l-1.691-1.691c-0.39-0.391-1.023-0.391-1.414,0l-2.122,2.122c-0.391,0.39-0.391,1.024,0,1.414l1.709,1.709
	c-0.241,0.461-0.455,0.938-0.61,1.443H426c-0.553,0-1,0.448-1,1V566c0,0.552,0.447,1,1,1h2.407c0.156,0.505,0.371,0.984,0.612,1.445
	l-1.711,1.712c-0.391,0.39-0.391,1.023,0,1.414l2.121,2.121c0.391,0.391,1.024,0.391,1.414,0l1.696-1.696
	c0.465,0.248,0.948,0.467,1.46,0.625v2.378c0,0.553,0.448,1,1,1h3c0.552,0,1-0.447,1-1v-2.378c0.511-0.157,0.993-0.376,1.457-0.624
	l1.699,1.698c0.39,0.391,1.023,0.391,1.414,0l2.121-2.121c0.391-0.391,0.391-1.024,0-1.414l-1.713-1.713
	c0.243-0.461,0.458-0.941,0.614-1.447H447c0.552,0,1-0.448,1-1V562.999z M436.5,568.997c-2.493,0-4.514-2.015-4.514-4.5
	s2.021-4.5,4.514-4.5s4.514,2.015,4.514,4.5S438.992,568.997,436.5,568.997z M436.5,560.996c-1.937,0-3.506,1.567-3.506,3.5
	c0,1.934,1.57,3.5,3.506,3.5s3.506-1.566,3.506-3.5C440.006,562.563,438.436,560.996,436.5,560.996z"/>
<path style="fill-rule:evenodd;clip-rule:evenodd;" d="M523.828,576.828c-0.193,0.193-0.506,0.193-0.699,0l-6.572-6.572
	c-1.865,1.698-4.336,2.742-7.058,2.742c-5.799,0-10.5-4.7-10.5-10.5c0-5.798,4.701-10.498,10.5-10.498c5.799,0,10.5,4.7,10.5,10.498
	c0,2.723-1.045,5.194-2.744,7.06l6.572,6.573C524.021,576.322,524.021,576.634,523.828,576.828z M519,562.497
	c0-5.246-4.253-9.499-9.5-9.499c-5.247,0-9.5,4.253-9.5,9.499c0,5.248,4.253,9.501,9.5,9.501
	C514.747,571.998,519,567.745,519,562.497z"/>
<path style="fill-rule:evenodd;clip-rule:evenodd;" d="M667,576.999v-7h7v7H667z M673,570.998h-5v5h5V570.998z M667,560.999h7v7h-7
	V560.999z M668,566.998h5v-4.999h-5V566.998z M667,551.999h7v7h-7V551.999z M668,557.999h5v-5h-5V557.999z M658,569.999h7v7h-7
	V569.999z M659,575.998h5v-5h-5V575.998z M658,560.999h7v7h-7V560.999z M659,566.998h5v-4.999h-5V566.998z M658,551.999h7v7h-7
	V551.999z M659,557.999h5v-5h-5V557.999z M649,569.999h7v7h-7V569.999z M650,575.998h5v-5h-5V575.998z M649,560.999h7v7h-7V560.999z
	 M650,566.998h5v-4.999h-5V566.998z M649,551.999h7v7h-7V551.999z M650,557.999h5v-5h-5V557.999z"/>
<path style="fill-rule:evenodd;clip-rule:evenodd;" d="M596,574.999h-6c-1.104,0-2-0.895-2-1.999v-6c0-1.105,0.896-2,2-2h6
	c1.105,0,2,0.895,2,2v6C598,574.104,597.104,574.999,596,574.999z M597,567c0-0.553-0.448-1-1-1h-6c-0.552,0-1,0.448-1,1v6
	c0,0.551,0.448,1,1,1h6c0.552,0,1-0.449,1-1V567z M596,562.999h-6c-1.104,0-2-0.895-2-2v-6c0-1.104,0.896-2,2-2h6
	c1.105,0,2,0.896,2,2v6C598,562.104,597.104,562.999,596,562.999z M597,554.999c0-0.552-0.448-1-1-1h-6c-0.552,0-1,0.448-1,1v6
	c0,0.552,0.448,1,1,1h6c0.552,0,1-0.448,1-1V554.999z M584,574.999h-6c-1.104,0-2-0.895-2-1.999v-6c0-1.105,0.896-2,2-2h6
	c1.104,0,2,0.895,2,2v6C586,574.104,585.104,574.999,584,574.999z M585,567c0-0.553-0.448-1-1-1h-6c-0.552,0-1,0.448-1,1v6
	c0,0.551,0.448,1,1,1h6c0.552,0,1-0.449,1-1V567z M584,562.999h-6c-1.104,0-2-0.895-2-2v-6c0-1.104,0.896-2,2-2h6
	c1.104,0,2,0.896,2,2v6C586,562.104,585.104,562.999,584,562.999z M585,554.999c0-0.552-0.448-1-1-1h-6c-0.552,0-1,0.448-1,1v6
	c0,0.552,0.448,1,1,1h6c0.552,0,1-0.448,1-1V554.999z"/>
<path style="fill-rule:evenodd;clip-rule:evenodd;" d="M144,485.5C144,485.5,144,485.5,144,485.5l0,3.927
	c0,0.868-0.709,1.571-1.583,1.571h-15.833c-0.874,0-1.583-0.703-1.583-1.571v-18.857c0-0.869,0.709-1.571,1.583-1.571h3.566
	c0.457-1.694,2.016-2.999,3.851-2.999h1c1.835,0,3.394,1.305,3.851,2.999h3.565c0.875,0,1.583,0.703,1.583,1.571L144,485.5
	C144,485.5,144,485.5,144,485.5z M126.84,489.998h15.32c0.47,0,0.851-0.373,0.851-0.834V486h-17.022v3.165
	C125.989,489.625,126.37,489.998,126.84,489.998z M135,467h-1c-1.067,0-2.369,0.674-2.823,1.999h6.645
	C137.369,467.673,136.067,467,135,467z M142.16,469.997H139c0,0.001,0,0.002,0,0.002v5h-1v-5c0,0,0-0.001,0-0.002h-7
	c0,0.001,0,0.002,0,0.002v5h-1v-5c0,0,0-0.001,0-0.002h-3.16c-0.47,0-0.851,0.374-0.851,0.834V485h17.022v-14.168
	C143.011,470.371,142.63,469.997,142.16,469.997z"/>
<path style="fill-rule:evenodd;clip-rule:evenodd;" d="M293.454,490.999h-13.909c-0.854,0-1.545-0.705-1.545-1.576v-16.604
	l8.5-6.818l8.5,6.818v16.604C295,490.294,294.308,490.999,293.454,490.999z M294,473.298l-7.5-6.016l-7.5,6.016v16.125
	c0,0.317,0.245,0.576,0.545,0.576h13.909c0.301,0,0.546-0.259,0.546-0.576V473.298z M286.5,477.998c-1.933,0-3.5-1.567-3.5-3.501
	c0-1.932,1.567-3.5,3.5-3.5c1.933,0,3.5,1.567,3.5,3.5C290,476.431,288.433,477.998,286.5,477.998z M286.5,471.996
	c-1.38,0-2.5,1.119-2.5,2.5c0,1.381,1.12,2.5,2.5,2.5c1.381,0,2.5-1.119,2.5-2.5C289,473.115,287.88,471.996,286.5,471.996z
	 M285,488.998h-1v-8h1V488.998z M289,488.998h-1v-8h1V488.998z"/>
<path style="fill-rule:evenodd;clip-rule:evenodd;" d="M216.454,490.999h-13.909c-0.854,0-1.545-0.705-1.545-1.576v-16.605
	l8.5-6.818l8.5,6.818v16.605C218,490.294,217.308,490.999,216.454,490.999z M217,473.298l-7.5-6.016l-7.5,6.016v16.125
	c0,0.317,0.245,0.576,0.545,0.576h13.909c0.301,0,0.546-0.259,0.546-0.576V473.298z M205,486.999h9v1h-9V486.999z M209.5,478.998
	c-1.933,0-3.5-1.567-3.5-3.501c0-1.932,1.567-3.5,3.5-3.5c1.933,0,3.5,1.567,3.5,3.5C213,477.431,211.433,478.998,209.5,478.998z
	 M209.5,472.996c-1.38,0-2.5,1.119-2.5,2.5c0,1.382,1.12,2.5,2.5,2.5c1.381,0,2.5-1.118,2.5-2.5
	C212,474.115,210.88,472.996,209.5,472.996z"/>
<path style="fill-rule:evenodd;clip-rule:evenodd;" d="M595.929,473.73l-8.934,10.028c-0.096,0.152-0.268,0.231-0.445,0.236
	c-0.017,0.002-0.033,0.002-0.05,0.003c-0.017-0.001-0.033-0.001-0.05-0.003c-0.178-0.005-0.35-0.084-0.445-0.236l-8.934-10.028
	c-0.147-0.234-0.06-0.534,0.195-0.669s0.581-0.055,0.729,0.179l8.505,9.547l8.505-9.547c0.147-0.234,0.473-0.314,0.729-0.179
	C595.988,473.196,596.076,473.496,595.929,473.73z"/>
<path style="fill-rule:evenodd;clip-rule:evenodd;" d="M514.998,478.5c-0.001,0.017,0,0.033-0.003,0.05
	c-0.005,0.178-0.084,0.35-0.236,0.445l-10.029,8.934c-0.234,0.147-0.534,0.06-0.669-0.195s-0.055-0.581,0.179-0.729l9.547-8.505
	l-9.547-8.504c-0.234-0.147-0.314-0.474-0.179-0.729c0.135-0.255,0.435-0.343,0.669-0.195l10.029,8.933
	c0.152,0.096,0.23,0.268,0.236,0.445C514.998,478.467,514.997,478.483,514.998,478.5z"/>
<path style="fill-rule:evenodd;clip-rule:evenodd;" d="M444.733,483.938c-0.255,0.136-0.582,0.055-0.729-0.18l-8.505-9.547
	l-8.505,9.547c-0.147,0.234-0.474,0.315-0.729,0.18c-0.255-0.135-0.342-0.435-0.195-0.669l8.934-10.029
	c0.095-0.152,0.267-0.23,0.445-0.236c0.017-0.002,0.033-0.002,0.05-0.003c0.017,0.001,0.033,0.001,0.05,0.003
	c0.178,0.005,0.35,0.084,0.445,0.236l8.933,10.029C445.076,483.503,444.988,483.803,444.733,483.938z"/>
<path style="fill-rule:evenodd;clip-rule:evenodd;" d="M365.759,469.995l-9.548,8.504l9.548,8.505
	c0.234,0.147,0.314,0.474,0.179,0.729s-0.435,0.343-0.669,0.195l-10.029-8.934c-0.152-0.095-0.23-0.268-0.236-0.445
	c-0.002-0.017-0.002-0.033-0.003-0.05c0.001-0.017,0.001-0.033,0.003-0.05c0.005-0.178,0.083-0.35,0.236-0.445l10.029-8.933
	c0.234-0.147,0.534-0.06,0.669,0.195C366.074,469.521,365.993,469.848,365.759,469.995z"/>
<path style="fill-rule:evenodd;clip-rule:evenodd;" d="M670,474.947v0.051h-4v7h3.492c0.002,0,0.005,0,0.008,0s0.005,0,0.008,0H670
	v0.05c2.247,0.251,4,2.135,4,4.449c0,2.486-2.015,4.5-4.5,4.5c-2.314,0-4.198-1.753-4.45-4H665v-4h-7v3.5c0,0.001,0,0.002,0,0.003
	s0,0.002,0,0.003v0.493h-0.05c-0.25,2.249-2.135,4.004-4.45,4.004c-2.485,0-4.5-2.015-4.5-4.5c0-2.314,1.753-4.198,4-4.45v-0.053h4
	v-7h-4v-0.051c-2.247-0.252-4-2.136-4-4.45c0-2.485,2.015-4.5,4.5-4.5c2.314,0,4.198,1.753,4.45,4H658v0.498c0,0,0,0.001,0,0.002
	s0,0.002,0,0.003v3.499h7v-3.501c0,0,0,0,0,0c0,0,0,0,0,0v-0.5h0.05c0.251-2.247,2.135-4,4.449-4c2.485,0,4.5,2.015,4.5,4.5
	C674,472.812,672.247,474.695,670,474.947z M666,483.702C666,483.701,666,483.701,666,483.702v2.795c0,0,0,0,0,0c0,0,0,0,0,0.001
	v0.499h0.05c0.245,1.695,1.688,3,3.45,3c1.933,0,3.5-1.566,3.5-3.5c0-1.762-1.306-3.205-3-3.449v-0.051h-4v0.001l0,0V483.702z
	 M657,469.997h-0.05c-0.245-1.694-1.688-3-3.45-3c-1.933,0-3.5,1.566-3.5,3.5c0,1.763,1.306,3.206,3,3.451v0.05h0.496
	c0.001,0,0.002,0,0.004,0s0.003,0,0.004,0h2.792c0,0-0.001,0.001-0.001,0.001H657v-0.001l0,0V469.997z M657,483.001L657,483.001
	v-0.003h-0.707c0.001,0.001,0.002,0.002,0.003,0.003H653v0.05c-1.694,0.245-3,1.688-3,3.45c0,1.933,1.567,3.499,3.5,3.499
	c1.762,0,3.205-1.305,3.45-2.999H657V483.001z M665,474.998h-7v7h7V474.998z M669.5,466.998c-1.761,0-3.205,1.305-3.449,3H666v4h0
	v0.001h0.705c0,0,0-0.001-0.001-0.001h2.792c0.001,0,0.002,0,0.004,0s0.003,0,0.004,0H670v-0.05c1.694-0.245,3-1.688,3-3.451
	C673,468.564,671.433,466.998,669.5,466.998z"/>
<path style="fill-rule:evenodd;clip-rule:evenodd;" d="M364,406.972v0.026h-9l0,0c-3.866,0-7-3.134-7-7s3.134-7,7-7
	c0.043,0,0.086,0.005,0.129,0.006c1.603-2.98,4.75-5.007,8.37-5.007c5.247,0,9.5,4.253,9.5,9.5
	C373,402.576,369.013,406.711,364,406.972z M363.5,388.998c-3.474,0-6.457,2.087-7.775,5.073c-0.24-0.029-0.477-0.073-0.725-0.073
	c-3.313,0-6,2.686-6,6c0,2.972,2.165,5.421,5,5.9v0.101h11v-0.14c3.978-0.709,7-4.178,7-8.36
	C372,392.803,368.194,388.998,363.5,388.998z"/>
<path style="fill-rule:evenodd;clip-rule:evenodd;" d="M291,403.868v-1.01c3.978-0.709,7-4.178,7-8.36c0-4.695-3.806-8.5-8.5-8.5
	c-3.474,0-6.457,2.086-7.775,5.073c-0.24-0.029-0.477-0.073-0.725-0.073c-3.313,0-6,2.687-6,6c0,2.971,2.165,5.421,5,5.899v1
	c-3.388-0.489-6-3.376-6-6.899c0-3.866,3.134-7,7-7c0.043,0,0.083,0.012,0.127,0.013c1.602-2.983,4.75-5.013,8.373-5.013
	c5.247,0,9.5,4.253,9.5,9.5C299,399.233,295.532,403.147,291,403.868z M283.014,403.569c-0.003-0.023-0.014-0.044-0.014-0.069
	c0-0.011,0.005-0.02,0.006-0.031c0.002-0.023,0.008-0.045,0.014-0.069c0.018-0.084,0.051-0.16,0.105-0.223l3.838-5.93
	c0.153-0.237,0.493-0.318,0.759-0.182c0.266,0.137,0.357,0.44,0.203,0.677L284.523,403h3.977c0.16,0,0.295,0.08,0.387,0.196
	c0,0,0.001,0.001,0.001,0.002c0.034,0.044,0.062,0.092,0.08,0.146c0.01,0.028,0.013,0.057,0.017,0.086
	c0.003,0.024,0.014,0.045,0.014,0.069c0,0.011-0.006,0.02-0.006,0.031c-0.002,0.023-0.008,0.045-0.014,0.068
	c-0.018,0.085-0.052,0.162-0.106,0.225l-3.837,5.929c-0.153,0.237-0.493,0.318-0.759,0.181c-0.266-0.136-0.356-0.439-0.203-0.676
	l3.402-5.257H283.5c-0.16,0-0.296-0.08-0.388-0.196c0,0,0-0.001,0-0.001c-0.035-0.044-0.063-0.092-0.081-0.147
	C283.021,403.626,283.019,403.598,283.014,403.569z"/>
<path style="fill-rule:evenodd;clip-rule:evenodd;" d="M213,403.973v0.025h-9c-3.866,0-7-3.134-7-7s3.134-7,7-7
	c0.043,0,0.083,0.012,0.126,0.013c1.602-2.983,4.75-5.013,8.374-5.013c5.247,0,9.5,4.253,9.5,9.5
	C222,399.576,218.013,403.711,213,403.973z M212.5,385.998c-3.474,0-6.457,2.086-7.775,5.073c-0.241-0.029-0.477-0.073-0.725-0.073
	c-3.314,0-6,2.687-6,6c0,2.971,2.165,5.421,5,5.899v0.101h11v-0.14c3.978-0.709,7-4.178,7-8.36
	C221,389.803,217.194,385.998,212.5,385.998z M205.001,410.006h-1.003v-4.016h1.003V410.006z M210.001,410.006h-1.003v-4.016h1.003
	V410.006z M215.001,410.006h-1.003v-4.016h1.003V410.006z"/>
<path style="fill-rule:evenodd;clip-rule:evenodd;" d="M141,403.973v0.025h-9c-3.866,0-7-3.134-7-7s3.134-7,7-7
	c0.043,0,0.083,0.012,0.127,0.013c1.602-2.983,4.75-5.013,8.373-5.013c5.247,0,9.5,4.253,9.5,9.5
	C150,399.576,146.012,403.711,141,403.973z M140.5,385.998c-3.474,0-6.457,2.086-7.775,5.073c-0.24-0.029-0.477-0.073-0.725-0.073
	c-3.314,0-6,2.687-6,6c0,2.971,2.165,5.421,5,5.899v0.101h11v-0.14c3.978-0.709,7-4.178,7-8.36
	C149,389.803,145.194,385.998,140.5,385.998z M134.001,407.003h-1.003v-1.01h1.003V407.003z M136.001,410.003h-1.003v-1.01h1.003
	V410.003z M139.001,407.003h-1.003v-1.01h1.003V407.003z M141.001,410.003h-1.003v-1.01h1.003V410.003z M144.001,407.003h-1.003
	v-1.01h1.003V407.003z"/>
<path style="fill-rule:evenodd;clip-rule:evenodd;" d="M521.953,388.621c0.01,0.048,0.03,0.093,0.03,0.144v18.4
	c0,0.424-0.35,0.768-0.781,0.768H497.78c-0.431,0-0.781-0.344-0.781-0.768v-18.4c0-0.061,0.022-0.115,0.036-0.172
	c-0.055-0.165-0.05-0.344,0.081-0.476c0.131-0.132,0.311-0.136,0.476-0.082c0.062-0.015,0.122-0.037,0.188-0.037h23.421
	c0.071,0,0.135,0.022,0.201,0.04c0.167-0.058,0.349-0.054,0.481,0.079C522.023,388.255,522.022,388.449,521.953,388.621z
	 M497.996,389.773v16.446c0,0.427,0.352,0.772,0.785,0.772h21.42c0.434,0,0.786-0.345,0.786-0.772v-16.446
	c0-0.096-0.023-0.185-0.055-0.269l-11.062,8.311c-0.009,0.012-0.005,0.028-0.016,0.039c-0.098,0.098-0.226,0.137-0.354,0.131
	c-0.128,0.005-0.256-0.034-0.354-0.131c-0.011-0.011-0.007-0.027-0.016-0.039l-11.077-8.322
	C498.019,389.58,497.996,389.673,497.996,389.773z M509.5,396.916L520.034,389h-21.068L509.5,396.916z"/>
<path style="fill-rule:evenodd;clip-rule:evenodd;" d="M435.5,411.01c0,0-12.5-10.313-12.5-15.078c0-4.386,1.935-7.943,6.25-7.943
	c2.344,0,5.469,2.383,6.25,3.188c0.781-0.805,3.906-3.188,6.25-3.188c4.314,0,6.25,3.557,6.25,7.943
	C448,400.697,435.5,411.01,435.5,411.01z M441.75,388.989c-1.894,0-4.762,2.09-5.532,2.885l-0.718,0.739l-0.718-0.739
	c-0.771-0.794-3.639-2.885-5.532-2.885c-4.738,0-5.25,4.855-5.25,6.943c0,2.99,6.802,9.798,11.5,13.773
	c3.807-3.222,8.994-8.304,10.825-11.706H441.5c-0.142,0-0.268-0.06-0.359-0.154c-0.016-0.013-0.039-0.007-0.054-0.022l-1.56-2.363
	l-3.491,6.292c-0.136,0.21-0.417,0.288-0.666,0.209c0,0-0.001,0-0.001,0c-0.031-0.01-0.063-0.013-0.092-0.028
	c-0.143-0.073-0.23-0.195-0.261-0.328L433.143,398H429.5c-0.276,0-0.5-0.224-0.5-0.5s0.224-0.5,0.5-0.5h4
	c0.233,0,0.421,0.164,0.476,0.38l1.572,3.024l3.416-6.156c0.108-0.168,0.311-0.252,0.514-0.242c0.049-0.004,0.087,0.017,0.136,0.027
	c0.037,0.011,0.074,0.015,0.109,0.033c0.013,0.007,0.021,0.019,0.034,0.026c0.04,0.023,0.09,0.017,0.124,0.051l1.886,2.856h4.734
	c0.091,0,0.172,0.031,0.246,0.074c0.157-0.42,0.254-0.808,0.254-1.142C447,393.844,446.488,388.989,441.75,388.989z"/>
<path style="fill-rule:evenodd;clip-rule:evenodd;" d="M669.981,406.662l-0.329,0.348l-0.025-0.026
	c-2.186,1.875-5.021,3.015-8.127,3.015c-6.904,0-12.5-5.597-12.5-12.5c0-3.633,1.56-6.895,4.035-9.178l0.313-0.331l0.023,0.024
	c2.187-1.875,5.022-3.016,8.129-3.016c6.903,0,12.5,5.597,12.5,12.5C674,401.124,672.447,404.379,669.981,406.662z M669.668,405.59
	c1.269-1.281,2.236-2.86,2.794-4.621l-6.793-1.793c-0.197,0.49-0.484,0.929-0.831,1.315L669.668,405.59z M665,397.498
	c0-1.933-1.567-3.5-3.5-3.5c-1.933,0-3.5,1.566-3.5,3.5s1.567,3.5,3.5,3.5C663.433,400.998,665,399.431,665,397.498z M650,397.498
	c0,6.352,5.148,11.5,11.5,11.5c2.839,0,5.434-1.035,7.44-2.74l-4.834-5.103c-0.736,0.526-1.632,0.843-2.606,0.843
	c-2.485,0-4.5-2.015-4.5-4.5c0-0.239,0.034-0.468,0.07-0.697l-6.792-1.792C650.101,395.812,650,396.643,650,397.498z
	 M653.331,389.408c-1.27,1.281-2.237,2.86-2.794,4.622l6.794,1.792c0.197-0.49,0.484-0.929,0.831-1.316L653.331,389.408z
	 M661.5,385.999c-2.84,0-5.436,1.035-7.442,2.741l4.834,5.103c0.737-0.526,1.633-0.844,2.607-0.844c2.485,0,4.5,2.015,4.5,4.5
	c0,0.239-0.035,0.47-0.071,0.699l6.792,1.792c0.178-0.803,0.279-1.634,0.279-2.491C673,391.147,667.851,385.999,661.5,385.999z"/>
<path style="fill-rule:evenodd;clip-rule:evenodd;" d="M586.5,403.75L579,410v-25h15v25L586.5,403.75z M593,386h-13v21.866
	l5.86-4.884l0.64-0.533l0.641,0.533l5.859,4.884V386z"/>
<path style="fill-rule:evenodd;clip-rule:evenodd;" d="M671.925,320.999c0.327,2.015-1.085,4.442-3.639,5.893
	c-3.061,1.737-6.566,1.403-7.829-0.747c-1.262-2.149,0.196-5.301,3.257-7.039c2.699-1.532,5.738-1.448,7.286,0.065v-13.172h1v15
	H671.925z M670.805,320.454c-0.786-1.7-3.575-1.938-6.229-0.533c-2.654,1.406-4.168,3.922-3.382,5.623
	c0.786,1.699,3.575,1.937,6.229,0.532C670.077,324.67,671.592,322.153,670.805,320.454z M667.5,313h-15c-0.276,0-0.5-0.224-0.5-0.5
	c0-0.276,0.224-0.5,0.5-0.5h15c0.276,0,0.5,0.224,0.5,0.5C668,312.775,667.776,313,667.5,313z M667.5,308h-15
	c-0.276,0-0.5-0.224-0.5-0.5c0-0.276,0.224-0.5,0.5-0.5h15c0.276,0,0.5,0.224,0.5,0.5C668,307.776,667.776,308,667.5,308z
	 M652.5,317h10c0.276,0,0.5,0.224,0.5,0.5c0,0.276-0.224,0.5-0.5,0.5h-10c-0.276,0-0.5-0.224-0.5-0.5
	C652,317.224,652.224,317,652.5,317z M652.5,322h5c0.276,0,0.5,0.224,0.5,0.5c0,0.276-0.224,0.5-0.5,0.5h-5
	c-0.276,0-0.5-0.224-0.5-0.5C652,322.224,652.224,322,652.5,322z"/>
<path style="fill-rule:evenodd;clip-rule:evenodd;" d="M597.438,327.998h-21.875c-0.863,0-1.563-0.71-1.563-1.583v-15.833
	c0-0.875,0.699-1.583,1.563-1.583h4.01l1.028-2.249c0,0,0.716-1.75,1.6-1.75h8.6c0.884,0,1.6,1.75,1.6,1.75l1.028,2.249h4.01
	c0.863,0,1.563,0.708,1.563,1.583v15.833C599,327.288,598.3,327.998,597.438,327.998z M598,312c0-1.104-0.896-2-2-2h-3.214
	l-1.296-2.834c-0.208-0.5-0.563-1.039-0.757-1.166h-8.467c-0.194,0.128-0.555,0.673-0.741,1.129L580.214,310H577
	c-1.104,0-2,0.895-2,2v13c0,1.104,0.896,2,2,2h19c1.104,0,2-0.896,2-2V312z M586.5,324.998c-3.589,0-6.5-2.911-6.5-6.501
	c0-3.589,2.91-6.5,6.5-6.5c3.59,0,6.5,2.91,6.5,6.5C593,322.087,590.09,324.998,586.5,324.998z M586.5,312.997
	c-3.038,0-5.5,2.462-5.5,5.5s2.462,5.5,5.5,5.5c3.038,0,5.5-2.463,5.5-5.5S589.538,312.997,586.5,312.997z"/>
<path style="fill-rule:evenodd;clip-rule:evenodd;" d="M518.875,327.998h-18.75c-1.726,0-3.125-1.377-3.125-3.077v-13.847
	c0-1.699,1.399-3.077,3.125-3.077h3.562c0.961-1.5,2.161-2.998,3.113-2.998h5.4c0.952,0,2.151,1.499,3.113,2.998h3.562
	c1.726,0,3.125,1.377,3.125,3.077v13.847C522,326.621,520.601,327.998,518.875,327.998z M512.197,306H506.8
	c-0.381,0.038-1.11,0.839-1.91,1.998h9.218C513.31,306.842,512.581,306.041,512.197,306z M521,311c0-1.104-0.896-2-2-2h-19
	c-1.104,0-2,0.896-2,1.999h4v1h-4v2h4v1h-4V325c0,1.104,0.896,2,2,2h19c1.104,0,2-0.896,2-2V311z M509.5,322.998
	c-3.038,0-5.5-2.462-5.5-5.5s2.462-5.5,5.5-5.5s5.5,2.462,5.5,5.5S512.537,322.998,509.5,322.998z M509.5,312.998
	c-2.485,0-4.5,2.014-4.5,4.5c0,2.485,2.015,4.5,4.5,4.5c2.485,0,4.5-2.015,4.5-4.5C514,315.012,511.985,312.998,509.5,312.998z"/>
<path style="fill-rule:evenodd;clip-rule:evenodd;" d="M444.875,327.998H443V328h-1v-0.001h-13V328h-1v-0.001h-1.875
	c-1.726,0-3.125-1.378-3.125-3.077v-13.843c0-1.699,1.399-3.076,3.125-3.076H431v-2.337c0-0.369,0.336-0.667,0.75-0.667h7.5
	c0.414,0,0.75,0.299,0.75,0.667v2.337h4.875c1.726,0,3.125,1.377,3.125,3.076v13.843C448,326.62,446.601,327.998,444.875,327.998z
	 M429,327h13v-12h-13V327z M424,325c0,1.105,0.896,2,2,2h2v-12h-4V325z M439,306h-7v2h7V306z M447,311c0-1.104-0.896-2-2-2h-19
	c-1.104,0-2,0.896-2,2v3h23V311z M447,315h-4v12h2c1.104,0,2-0.895,2-2V315z"/>
<path style="fill-rule:evenodd;clip-rule:evenodd;" d="M369.875,327.998h-18.75c-1.726,0-3.125-1.378-3.125-3.077v-13.843
	c0-1.699,1.399-3.076,3.125-3.076H356v-2.337c0-0.369,0.335-0.667,0.75-0.667h7.5c0.414,0,0.75,0.299,0.75,0.667v2.337h4.875
	c1.726,0,3.125,1.377,3.125,3.076v13.843C373,326.62,371.601,327.998,369.875,327.998z M364,306h-7v2h7V306z M372,311
	c0-1.104-0.896-2-2-2h-19c-1.104,0-2,0.896-2,2v3h23V311z M372,315h-23v10c0,1.105,0.896,2,2,2h19c1.104,0,2-0.895,2-2V315z"/>
<path style="fill-rule:evenodd;clip-rule:evenodd;" d="M296.656,324.994h-6.766l-3.39,3.005l-3.391-3.005h-6.766
	c-1.294,0-2.344-1.033-2.344-2.307v-15.381c0-1.275,1.049-2.308,2.344-2.308h20.313c1.294,0,2.343,1.033,2.343,2.308v15.381
	C299,323.961,297.951,324.994,296.656,324.994z M298,308c0-1.104-0.896-2-2-2h-19c-1.104,0-2,0.896-2,2v14c0,1.104,0.896,2,2,2h4.99
	l0.01-0.009V324h1.498L283.496,324l3.004,2.662l3.003-2.662L289.501,324H291v-0.009l0.009,0.009H296c1.104,0,2-0.895,2-2V308z"/>
<path style="fill-rule:evenodd;clip-rule:evenodd;" d="M220.219,319.988h-4.228l0.017,0.015l-3.508,3.003l-3.509-3.003l0.017-0.015
	h-4.227c-0.984,0-1.781-0.786-1.781-1.753v-12.483c0-0.968,0.797-1.754,1.781-1.754h15.438c0.983,0,1.781,0.786,1.781,1.754v12.483
	C222,319.202,221.202,319.988,220.219,319.988z M221,306c0-0.553-0.448-1-1-1h-15c-0.552,0-1,0.447-1,1v12c0,0.552,0.448,1,1,1
	h4.498l3.002,2.997l3.002-2.997H220c0.552,0,1-0.448,1-1V306z M198,312v12c0,0.552,0.448,1,1,1h4.498l3.002,2.997l3.001-2.997H214
	c0.552,0,1-0.448,1-1v-1.001h1v1.236c0,0.968-0.797,1.753-1.781,1.753h-4.227l0.017,0.015l-3.508,3.003l-3.509-3.003l0.017-0.015
	h-4.227c-0.984,0-1.781-0.785-1.781-1.753v-12.482c0-0.969,0.797-1.754,1.781-1.754H201V311h-2C198.448,311,198,311.447,198,312z"/>
<path style="fill-rule:evenodd;clip-rule:evenodd;" d="M135.5,325.873c-0.549,0-1.085-0.042-1.615-0.102L127,328.998v-6l0.115,0.032
	c-2.521-2-4.115-4.881-4.115-8.094c0-6.041,5.596-10.938,12.5-10.938s12.5,4.896,12.5,10.938S142.403,325.873,135.5,325.873z
	 M135.5,304.998c-6.351,0-11.5,4.478-11.5,10c0,3.025,1.557,5.722,4,7.553V327l5.24-2.246l0.327,0.092
	c0.63,0.093,1.273,0.152,1.933,0.152c6.351,0,11.5-4.477,11.5-10C147,309.475,141.851,304.998,135.5,304.998z"/>
<path style="fill-rule:evenodd;clip-rule:evenodd;" d="M446.004,247.302l-0.701,0.701L442.5,245.2l-2.804,2.803l-0.701-0.701
	l2.803-2.803l-2.803-2.803l0.701-0.702l2.804,2.804l2.803-2.804l0.701,0.702l-2.803,2.803L446.004,247.302z M437.363,238h-0.639
	c-0.951,0.632-2.049,0.999-3.225,0.999c-1.175,0-2.274-0.367-3.224-0.999h-0.639c-2.005,0-3.636,1.57-3.636,3.5v3
	c0,1.93,1.631,3.5,3.636,3.5H437v1h-7.363c-2.561,0-4.636-2.014-4.636-4.5v-3c0-2.319,1.807-4.227,4.128-4.472
	c-1.297-1.372-2.115-3.338-2.115-5.53c0-4.142,2.904-7.5,6.486-7.5s6.487,3.358,6.487,7.5c0,2.192-0.818,4.159-2.116,5.53
	c1.699,0.18,3.119,1.251,3.76,2.72h-1.125C439.876,238.705,438.705,238,437.363,238z M439.002,231.497c0-3.589-2.464-6.5-5.503-6.5
	s-5.503,2.911-5.503,6.5c0,3.591,2.464,6.5,5.503,6.5S439.002,235.088,439.002,231.497z"/>
<path style="fill-rule:evenodd;clip-rule:evenodd;" d="M365.696,247.753l-0.187-0.187l-0.179,0.179l-2.328-2.327l0.666-0.666
	l1.813,1.813l4.821-4.821l0.701,0.701L365.696,247.753z M362.363,238h-0.639c-0.951,0.632-2.049,0.999-3.225,0.999
	c-1.175,0-2.274-0.367-3.224-0.999h-0.639c-2.005,0-3.636,1.57-3.636,3.5v3c0,1.93,1.631,3.5,3.636,3.5H362l0,1h-7.364
	c-2.561,0-4.636-2.014-4.636-4.5v-3c0-2.319,1.807-4.227,4.128-4.472c-1.297-1.372-2.116-3.338-2.116-5.53
	c0-4.142,2.904-7.5,6.487-7.5s6.487,3.358,6.487,7.5c0,2.192-0.818,4.159-2.116,5.53c1.699,0.18,3.119,1.251,3.76,2.72h-1.125
	C364.876,238.705,363.705,238,362.363,238z M364.002,231.497c0-3.589-2.463-6.5-5.503-6.5c-3.039,0-5.503,2.911-5.503,6.5
	c0,3.591,2.464,6.5,5.503,6.5C361.539,237.998,364.002,235.088,364.002,231.497z"/>
<path style="fill-rule:evenodd;clip-rule:evenodd;" d="M290.006,245.767v-1.035h6.987v1.035H290.006z M288.363,238h-0.639
	c-0.951,0.632-2.049,0.999-3.225,0.999c-1.175,0-2.274-0.367-3.224-0.999h-0.639c-2.005,0-3.636,1.57-3.636,3.5v3
	c0,1.93,1.631,3.5,3.636,3.5H288v1h-7.364c-2.561,0-4.636-2.014-4.636-4.5v-3c0-2.319,1.807-4.227,4.128-4.472
	c-1.297-1.372-2.116-3.338-2.116-5.53c0-4.142,2.904-7.5,6.487-7.5s6.487,3.358,6.487,7.5c0,2.192-0.818,4.159-2.116,5.53
	c1.699,0.18,3.119,1.251,3.76,2.72h-1.125C290.876,238.705,289.705,238,288.363,238z M290.002,231.497c0-3.589-2.463-6.5-5.503-6.5
	c-3.039,0-5.503,2.911-5.503,6.5c0,3.591,2.464,6.5,5.503,6.5C287.539,237.998,290.002,235.088,290.002,231.497z"/>
<path style="fill-rule:evenodd;clip-rule:evenodd;" d="M219.993,245.767h-2.976v2.976h-1.035v-2.976h-2.976v-1.035h2.976v-2.976
	h1.035v2.976h2.976V245.767z M211.363,238h-0.639c-0.951,0.632-2.049,0.999-3.225,0.999c-1.175,0-2.274-0.367-3.224-0.999h-0.639
	c-2.005,0-3.636,1.57-3.636,3.5v3c0,1.93,1.631,3.5,3.636,3.5H211v1h-7.363c-2.561,0-4.636-2.014-4.636-4.5v-3
	c0-2.319,1.807-4.227,4.128-4.472c-1.297-1.372-2.116-3.338-2.116-5.53c0-4.142,2.904-7.5,6.487-7.5s6.487,3.358,6.487,7.5
	c0,2.192-0.818,4.159-2.115,5.53c1.698,0.18,3.118,1.251,3.76,2.72h-1.125C213.876,238.705,212.705,238,211.363,238z
	 M213.002,231.497c0-3.589-2.463-6.5-5.503-6.5c-3.039,0-5.502,2.911-5.502,6.5c0,3.591,2.463,6.5,5.502,6.5
	C210.539,237.998,213.002,235.088,213.002,231.497z"/>
<path style="fill-rule:evenodd;clip-rule:evenodd;" d="M137.364,249h-7.727c-2.561,0-4.636-2.014-4.636-4.5v-3
	c0-2.316,1.802-4.221,4.12-4.471c-1.294-1.371-2.107-3.342-2.107-5.532c0-4.142,2.904-7.5,6.487-7.5c3.583,0,6.487,3.358,6.487,7.5
	c0,2.19-0.812,4.161-2.106,5.532c2.317,0.25,4.12,2.154,4.12,4.471v3C142,246.985,139.924,249,137.364,249z M139.003,231.497
	c0-3.589-2.464-6.5-5.503-6.5c-3.039,0-5.503,2.911-5.503,6.5c0,3.591,2.464,6.5,5.503,6.5
	C136.539,237.998,139.003,235.088,139.003,231.497z M141,241.5c0-1.93-1.632-3.5-3.636-3.5h-0.632
	c-0.952,0.634-2.055,0.999-3.232,0.999s-2.28-0.364-3.232-0.999h-0.631c-2.005,0-3.636,1.57-3.636,3.5v3c0,1.93,1.631,3.5,3.636,3.5
	h7.727c2.005,0,3.636-1.57,3.636-3.5V241.5z"/>
<path style="fill-rule:evenodd;clip-rule:evenodd;" d="M521.856,236.849c-0.003,0.004-0.008,0.007-0.012,0.01
	c-0.028,0.025-0.052,0.054-0.086,0.074l-7.996,6c-0.249,0.138-0.566,0.056-0.709-0.183c-0.144-0.239-0.058-0.545,0.19-0.684
	l6.753-5.067H501.5c-0.276,0-0.5-0.224-0.5-0.5c0-0.276,0.224-0.5,0.5-0.5h18.477l-6.705-5.067
	c-0.247-0.138-0.332-0.443-0.189-0.683s0.458-0.321,0.705-0.184l7.901,5.972c0.084,0.034,0.149,0.095,0.203,0.166
	c0.016,0.019,0.042,0.024,0.055,0.045C522.068,236.451,522.02,236.693,521.856,236.849z M498,226.533v19.932
	c0,0.278,0.221,0.506,0.502,0.532L509,245.519v1.008l-10.445,1.472c-0.859,0-1.555-0.687-1.555-1.534v-19.933
	c0-0.847,0.696-1.533,1.555-1.533l10.445,1.47v1.011l-10.497-1.478C498.221,226.028,498,226.256,498,226.533z"/>
<path style="fill-rule:evenodd;clip-rule:evenodd;" d="M587.378,248h6.122c0.276,0,0.5,0.224,0.5,0.5s-0.224,0.5-0.5,0.5h-7l0,0l0,0
	h-7c-0.276,0-0.5-0.224-0.5-0.5s0.224-0.5,0.5-0.5h6.122c-2.353-2.736-8.622-10.419-8.622-14.625c0-5.178,4.253-9.375,9.5-9.375
	c5.247,0,9.5,4.197,9.5,9.375C596,237.581,589.731,245.264,587.378,248z M586.5,225c-4.687,0-8.5,3.756-8.5,8.375
	c0,3.596,5.581,10.76,8.5,14.118c2.919-3.359,8.5-10.525,8.5-14.118C595,228.756,591.187,225,586.5,225z"/>
<path style="fill-rule:evenodd;clip-rule:evenodd;" d="M678,225.991v13.008h-0.033c0.118,1.75-1.159,3.77-3.372,5.003
	c-2.806,1.563-6.019,1.263-7.176-0.672c-1.157-1.935,0.18-4.771,2.985-6.334c2.427-1.353,5.153-1.304,6.596-0.016v-10.786l-13,2.632
	v13.172h-0.033c0.118,1.75-1.159,3.771-3.372,5.004c-2.806,1.563-6.019,1.263-7.176-0.672s0.18-4.771,2.985-6.334
	c2.427-1.353,5.153-1.304,6.596-0.016v-11.949l-0.004-0.021l0.004-0.001v-0.01h0.049L677,225.173v-0.175h1v0.969l0.004,0.022
	L678,225.991z M676.825,238.272c-0.708-1.488-3.217-1.696-5.606-0.466c-2.389,1.229-3.751,3.432-3.044,4.919
	c0.708,1.486,3.217,1.695,5.606,0.465C676.169,241.961,677.532,239.759,676.825,238.272z M662.825,241.272
	c-0.708-1.488-3.217-1.696-5.606-0.466s-3.751,3.432-3.044,4.919c0.708,1.486,3.217,1.695,5.606,0.465
	S663.532,242.759,662.825,241.272z"/>
<path style="fill-rule:evenodd;clip-rule:evenodd;" d="M446.417,160.999H445v-1h1.2c0.442,0,0.8-0.358,0.8-0.8v-15.4
	c0-0.441-0.358-0.8-0.8-0.8h-15.4c-0.442,0-0.8,0.359-0.8,0.8v1.2h-1v-1.416c0-0.875,0.708-1.584,1.583-1.584h15.833
	c0.875,0,1.583,0.709,1.583,1.584v15.833C448,160.289,447.291,160.999,446.417,160.999z M443,148.537v15.923
	c0,0.85-0.689,1.539-1.539,1.539h-15.923c-0.85,0-1.539-0.689-1.539-1.539v-15.923c0-0.849,0.689-1.539,1.539-1.539h15.923
	C442.311,146.998,443,147.688,443,148.537z M425.772,147.998c-0.427,0-0.773,0.347-0.773,0.773v15.454
	c0,0.427,0.346,0.773,0.773,0.773h15.455c0.427,0,0.773-0.346,0.773-0.773v-15.454c0-0.426-0.346-0.773-0.773-0.773H425.772z"/>
<path style="fill-rule:evenodd;clip-rule:evenodd;" d="M517.5,151.997c-1.899,0-3.515-1.18-4.176-2.843l-7.468,3.267
	c0.086,0.347,0.144,0.704,0.144,1.076c0,0.375-0.059,0.733-0.145,1.081l7.468,3.268c0.66-1.666,2.277-2.848,4.177-2.848
	c2.486,0,4.5,2.015,4.5,4.5c0,2.484-2.014,4.5-4.5,4.5c-2.485,0-4.5-2.015-4.5-4.5c0-0.23,0.034-0.452,0.067-0.673l-7.565-3.311
	c-0.742,1.467-2.247,2.483-4.002,2.483c-2.485,0-4.5-2.015-4.5-4.5c0-2.485,2.015-4.5,4.5-4.5c1.757,0,3.263,1.017,4.004,2.486
	l7.564-3.309c-0.034-0.222-0.068-0.445-0.068-0.677c0-2.485,2.015-4.5,4.5-4.5c2.486,0,4.5,2.015,4.5,4.5
	S519.985,151.997,517.5,151.997z M517.5,162.996c1.933,0,3.5-1.566,3.5-3.499c0-1.933-1.567-3.501-3.5-3.501s-3.5,1.568-3.5,3.501
	C514,161.43,515.566,162.996,517.5,162.996z M501.5,149.997c-1.933,0-3.5,1.567-3.5,3.5s1.567,3.5,3.5,3.5
	c1.933,0,3.5-1.566,3.5-3.5S503.433,149.997,501.5,149.997z M517.5,143.997c-1.933,0-3.5,1.567-3.5,3.5c0,1.933,1.567,3.5,3.5,3.5
	s3.5-1.567,3.5-3.5C521,145.564,519.433,143.997,517.5,143.997z"/>
<path style="fill-rule:evenodd;clip-rule:evenodd;" d="M671.5,163h-22c-0.276,0-0.5-0.224-0.5-0.5v-6c0-0.276,0.224-0.5,0.5-0.5
	c0.276,0,0.5,0.224,0.5,0.5v5.5h21v-5.5c0-0.276,0.224-0.5,0.5-0.5c0.276,0,0.5,0.224,0.5,0.5v6C672,162.776,671.776,163,671.5,163z
	 M660.849,158.846c-0.003,0.003-0.001,0.009-0.005,0.012c-0.099,0.099-0.23,0.147-0.36,0.146c-0.13,0.001-0.261-0.047-0.36-0.146
	c-0.003-0.003-0.004-0.008-0.005-0.012l-4.978-4.963c-0.197-0.196-0.197-0.515,0-0.711s0.516-0.196,0.713,0l4.128,4.117V144.5
	c0-0.276,0.224-0.5,0.501-0.5c0.277,0,0.501,0.224,0.501,0.5v12.79l4.128-4.117c0.197-0.196,0.516-0.196,0.713,0
	c0.196,0.196,0.196,0.515,0,0.711L660.849,158.846z"/>
<path style="fill-rule:evenodd;clip-rule:evenodd;" d="M597.5,163h-22c-0.276,0-0.5-0.224-0.5-0.5v-6c0-0.276,0.224-0.5,0.5-0.5
	c0.276,0,0.5,0.224,0.5,0.5v5.5h21v-5.5c0-0.276,0.224-0.5,0.5-0.5c0.276,0,0.5,0.224,0.5,0.5v6C598,162.776,597.776,163,597.5,163z
	 M591.117,149.827L587,145.71V158.5c0,0.276-0.224,0.5-0.5,0.5c-0.276,0-0.5-0.224-0.5-0.5V145.71l-4.117,4.117
	c-0.196,0.196-0.515,0.196-0.711,0c-0.196-0.197-0.196-0.515,0-0.711l4.964-4.964c0.001-0.004,0.001-0.008,0.005-0.012
	c0.099-0.099,0.229-0.147,0.359-0.146c0.13-0.001,0.26,0.047,0.359,0.146c0.003,0.003,0.001,0.009,0.005,0.012l4.963,4.963
	c0.196,0.196,0.196,0.514,0,0.711C591.631,150.023,591.313,150.023,591.117,149.827z"/>
<path style="fill-rule:evenodd;clip-rule:evenodd;" d="M365.969,141.996c4.171,0,6.031,1.949,6.031,6.319
	c0,4.382-7.75,12.72-11.501,16.315C356.748,161.046,349,152.729,349,148.315c0-4.371,1.86-6.319,6.031-6.319
	c2.737,0,4.577,3.235,4.594,3.266l0.896,1.616l0.865-1.634C361.402,145.211,363.136,141.996,365.969,141.996 M365.969,140.996
	c-3.494,0-5.469,3.782-5.469,3.782s-2.09-3.782-5.469-3.782c-4.747,0-7.031,2.386-7.031,7.319c0,6.169,12.5,17.688,12.5,17.688
	s12.5-11.558,12.5-17.688C373,143.382,370.715,140.996,365.969,140.996L365.969,140.996z"/>
<path style="fill-rule:evenodd;clip-rule:evenodd;" d="M286.5,165.998c-6.904,0-12.5-5.596-12.5-12.5s5.596-12.5,12.5-12.5
	c6.903,0,12.5,5.596,12.5,12.5S293.403,165.998,286.5,165.998z M286.5,141.998c-6.352,0-11.5,5.148-11.5,11.5s5.148,11.5,11.5,11.5
	c6.351,0,11.5-5.148,11.5-11.5S292.851,141.998,286.5,141.998z"/>
<path style="fill-rule:evenodd;clip-rule:evenodd;" d="M220.846,145.849l-15.998,15.997c-0.101,0.101-0.233,0.151-0.365,0.15
	c-0.132,0-0.264-0.05-0.365-0.15l-6.998-6.998c-0.201-0.201-0.201-0.526,0-0.727c0.201-0.201,0.526-0.201,0.727,0l6.635,6.634
	l15.635-15.635c0.201-0.201,0.526-0.201,0.727,0C221.047,145.322,221.047,145.647,220.846,145.849z"/>
<path style="fill-rule:evenodd;clip-rule:evenodd;" d="M134.211,153.483l9.635,9.635c0.201,0.201,0.201,0.526,0,0.728
	c-0.201,0.201-0.526,0.201-0.727,0l-9.635-9.635l-9.635,9.635c-0.201,0.201-0.526,0.201-0.727,0c-0.201-0.201-0.201-0.526,0-0.728
	l9.635-9.635l-9.635-9.635c-0.201-0.201-0.201-0.526,0-0.728c0.201-0.201,0.526-0.201,0.727,0l9.635,9.635l9.635-9.635
	c0.201-0.201,0.527-0.201,0.727,0c0.201,0.201,0.201,0.526,0,0.728L134.211,153.483z"/>
<path style="fill-rule:evenodd;clip-rule:evenodd;" d="M141.933,86.999h-16.866c-1.694,0-3.067-1.377-3.067-3.077V71.749v-0.75
	v-0.923v-0.077v-4.75c0-1.795,1.455-3.249,3.25-3.249h6.5c1.709,0,3.095,1.323,3.225,3h6.825c1.767,0,3.2,1.407,3.2,3.143v1.857
	v0.077v0.923v1.857v11.066C145,85.622,143.627,86.999,141.933,86.999z M144,67.999c0-1.104-0.896-2-2-2h-8v-1c0-1.104-0.895-2-2-2
	h-7c-1.104,0-2,0.896-2,2v2v1v2h21V67.999z M123,70.999v2v11c0,1.104,0.896,2,2,2h17c1.104,0,2-0.896,2-2v-11v-2H123z"/>
<path style="fill-rule:evenodd;clip-rule:evenodd;" d="M220.437,86.997h-21.875c-0.863,0-1.563-0.703-1.563-1.572v-0.012V69.581
	v-2.896v-0.116v-3.009c0-0.862,0.7-1.561,1.563-1.561h7.813c0.863,0,1.563,0.699,1.563,1.561v1.438h12.5
	c0.863,0,1.563,0.704,1.563,1.572v3.012v15.832v0.012C222,86.293,221.3,86.997,220.437,86.997z M198,69.797v1.199v14.201
	c0,0.441,0.352,0.799,0.786,0.799h21.429c0.434,0,0.786-0.358,0.786-0.799V70.996v-1.199v-0.8h-23V69.797z M221,67L221,67
	c0-0.001,0-0.003,0-0.004c0-0.551-0.336-0.999-0.75-0.999H220h-1.25H207v-0.749l0,0v-1.499c0-0.415-0.358-0.751-0.8-0.751h-7.4
	c-0.442,0-0.8,0.336-0.8,0.751v1.248l0,0v2l0,0v1.001h20.75h0.5V68H221V67z"/>
<path style="fill-rule:evenodd;clip-rule:evenodd;" d="M296.23,87h-19.462c-0.424,0-0.769-0.35-0.769-0.782V62.78
	c0-0.431,0.345-0.781,0.769-0.781h13.204L297,69.028v17.189C297,86.649,296.655,87,296.23,87z M290.001,68.998h5.553l-5.553-5.556
	V68.998z M296,69.442l-0.008-0.008v0.564h-6.998v-1.001h0.002v-5.999H277V86h19V69.442z"/>
<path style="fill-rule:evenodd;clip-rule:evenodd;" d="M371.454,86.998h-13.909c-0.854,0-1.545-0.687-1.545-1.534V65.531
	c0-0.847,0.692-1.533,1.545-1.533H359v-2h1v2h4v-2h1v2h4v-2h1v2h1.454c0.854,0,1.545,0.686,1.545,1.533v19.933
	C373,86.311,372.308,86.998,371.454,86.998z M372,65.767c0-0.425-0.348-0.769-0.777-0.769H370h-1h-4h-1h-4h-1h-1.222
	c-0.429,0-0.778,0.344-0.778,0.769v19.461c0,0.425,0.349,0.769,0.778,0.769h13.445c0.429,0,0.777-0.344,0.777-0.769V65.767z
	 M369.5,81h-10c-0.276,0-0.5-0.225-0.5-0.5s0.224-0.5,0.5-0.5h10c0.276,0,0.5,0.224,0.5,0.5S369.776,81,369.5,81z M369.5,76h-10
	c-0.276,0-0.5-0.224-0.5-0.5c0-0.276,0.224-0.5,0.5-0.5h10c0.276,0,0.5,0.224,0.5,0.5C370,75.776,369.776,76,369.5,76z M369.5,71
	h-10c-0.276,0-0.5-0.224-0.5-0.5s0.224-0.5,0.5-0.5h10c0.276,0,0.5,0.224,0.5,0.5S369.776,71,369.5,71z M352.5,86.998h-3
	c-0.828,0-1.5-0.7-1.5-1.563V73.998v-0.999V63.56c0-0.863,0.672-1.562,1.5-1.562h3c0.829,0,1.5,0.699,1.5,1.562v9.439v0.999v11.437
	C354,86.298,353.328,86.998,352.5,86.998z M353,64c0-0.552-0.448-1-1-1h-2c-0.552,0-1,0.448-1,1v9h4V64z M349,73.998V85
	c0,0.553,0.448,1,1,1h2c0.552,0,1-0.447,1-1V73.998H349z"/>
<path style="fill-rule:evenodd;clip-rule:evenodd;" d="M444.875,86.998h-18.75c-1.726,0-3.125-1.4-3.125-3.125v-18.75
	c0-1.727,1.399-3.125,3.125-3.125h18.75c1.726,0,3.125,1.398,3.125,3.125v18.75C448,85.598,446.601,86.998,444.875,86.998z M447,65
	c0-1.104-0.896-2-2-2h-19c-1.104,0-2,0.895-2,2v1.999h23v1h-6v17.999h-1V67.999h-16V84c0,1.105,0.896,2,2,2h19c1.104,0,2-0.895,2-2
	V65z M436.5,82h-9c-0.276,0-0.5-0.224-0.5-0.5c0-0.276,0.224-0.5,0.5-0.5h9c0.276,0,0.5,0.224,0.5,0.5
	C437,81.776,436.776,82,436.5,82z M436.5,77.999h-9c-0.276,0-0.5-0.224-0.5-0.5c0-0.276,0.224-0.5,0.5-0.5h9
	c0.276,0,0.5,0.224,0.5,0.5C437,77.776,436.776,77.999,436.5,77.999z M436.5,74h-9c-0.276,0-0.5-0.224-0.5-0.5
	c0-0.276,0.224-0.5,0.5-0.5h9c0.276,0,0.5,0.224,0.5,0.5C437,73.776,436.776,74,436.5,74z"/>
<path style="fill-rule:evenodd;clip-rule:evenodd;" d="M597,81.004h-2v-1.001h2V81.004z M595,68.002h2v1.002h-2V68.002z M593,81.004
	h-2v-1.001h2V81.004z M591,68.002h2v1.002h-2V68.002z M589,81.004h-2v-1.001h2V81.004z M587,68.002h2v1.002h-2V68.002z
	 M597.444,83.996h-10.889c0,0-0.001,0-0.002,0H590v-1.002h7.214c0.434,0,0.786-0.345,0.786-0.772V66.775
	c0-0.427-0.352-0.773-0.786-0.773h-10.428c-0.434,0-0.786,0.346-0.786,0.772V67l0,0v13.992l0,0V82l0,0v1l0,0v0.891
	c-0.006-0.002-0.013-0.001-0.019-0.004c-0.096,1.18-1.053,2.111-2.231,2.111h-7.5c-1.243,0-2.25-1.03-2.25-2.3V65.297
	c0-1.27,1.007-2.299,2.25-2.299h7.5c1.179,0,2.136,0.93,2.231,2.111c0.178-0.067,0.37-0.109,0.574-0.109h10.889
	c0.859,0,1.556,0.654,1.556,1.461v16.073C599,83.342,598.303,83.996,597.444,83.996z M576,85h8c0.552,0,1-0.448,1-1v-1h-10v1
	C575,84.552,575.448,85,576,85z M585,65c0-0.552-0.448-1-1-1h-8c-0.552,0-1,0.448-1,1v1h10V65z M575,67v15h10V67H575z"/>
<path style="fill-rule:evenodd;clip-rule:evenodd;" d="M662.5,87c0,0-9.5-10.448-9.5-15.625c0-5.177,4.254-9.375,9.5-9.375
	c5.247,0,9.5,4.197,9.5,9.375C672,76.552,662.5,87,662.5,87z M662.5,63c-4.687,0-8.5,3.757-8.5,8.375
	c0,3.595,5.581,10.759,8.5,14.118c2.919-3.36,8.5-10.526,8.5-14.118C671,66.757,667.187,63,662.5,63z M662.5,75.999
	c-2.485,0-4.5-2.015-4.5-4.5S660.015,67,662.5,67s4.5,2.014,4.5,4.499S664.985,75.999,662.5,75.999z M662.5,68
	c-1.933,0-3.5,1.567-3.5,3.5c0,1.932,1.567,3.499,3.5,3.499c1.933,0,3.5-1.567,3.5-3.499C666,69.566,664.433,68,662.5,68z"/>
<path style="fill-rule:evenodd;clip-rule:evenodd;" d="M521.233,86.998h-23.467c-0.423,0-0.767-0.349-0.767-0.781v-4.218v-1V62.78
	c0-0.432,0.343-0.781,0.767-0.781H509h1h11.233c0.423,0,0.767,0.349,0.767,0.781v18.219v1v4.218
	C522,86.648,521.656,86.998,521.233,86.998z M509,63h-10c-0.552,0-1,0.448-1,1v16.999h11V63z M521,64c0-0.552-0.448-1-1-1h-10
	v17.999h11V64z M521,81.999h-23V85c0,0.552,0.448,1,1,1h21c0.552,0,1-0.447,1-1V81.999z M514,74.998h-1v-4h1V74.998z M506,74.998h-1
	v-4h1V74.998z"/>
</svg>
